<?xml version="1.0" encoding="UTF-8" standalone="no"?>
<!-- Created with Inkscape (http://www.inkscape.org/) -->

<svg
   version="1.1"
   id="svg1"
   width="1023.8784"
   height="254.79546"
   viewBox="0 0 1023.8784 254.79545"
   xmlns="http://www.w3.org/2000/svg"
   xmlns:svg="http://www.w3.org/2000/svg">
  <defs
     id="defs1" />
  <g
     id="g1"
     transform="translate(-275.34066,-5.8390686)">
    <g
       id="g535"
       transform="matrix(5.1870072,0,0,5.1870072,-128.27249,-26.367629)">
      <path
         style="fill:#f1bfd6;fill-opacity:1;stroke:none;stroke-width:0.6;stroke-linecap:round;stroke-dasharray:none;stroke-opacity:1"
         d="m 123.62597,22.783552 0.083,2.24123 101.16743,0.39734 -0.44486,-1.00626 z"
         id="path535" />
      <path
         style="fill:#da5fab;fill-opacity:1;stroke:#da5fab;stroke-width:0.00610438;stroke-linecap:round;stroke-dasharray:none;stroke-opacity:1"
         d="m 113.56771,39.377802 c -0.15615,0.15224 -0.30084,0.40423 -0.56054,0.3465 -0.28391,-0.0145 -0.43454,-0.42808 -0.74473,-0.29588 -0.25348,0.0888 -0.21656,0.39983 -0.12069,0.59466 0.2167,0.53873 0.46715,1.09847 0.9091,1.49081 0.26501,0.22681 0.60962,0.0252 0.90277,-0.0189 0.64435,-0.15936 1.29335,-0.30374 1.93109,-0.4876 0.25592,-0.1007 0.23643,-0.49175 -0.0156,-0.58398 -0.22736,-0.0645 -0.43615,-0.24377 -0.42446,-0.49834 0.0146,-0.26209 -0.3084,-0.46441 -0.51857,-0.28379 -0.13866,0.10025 -0.26071,0.25883 -0.4283,0.29743 -0.26931,-0.1321 -0.41269,-0.41024 -0.63643,-0.59166 -0.10944,-0.0313 -0.19242,-0.0226 -0.29365,0.0307 z"
         id="path525" />
      <path
         style="fill:#da5fab;fill-opacity:1;stroke:#da5fab;stroke-width:0.0086329;stroke-linecap:round;stroke-dasharray:none;stroke-opacity:1"
         d="m 159.76158,49.653392 c -0.25968,-0.003 -0.31537,0.40416 -0.57044,0.35125 -0.30344,-0.0754 -0.54567,-0.45774 -0.87467,-0.29742 -0.26395,0.23378 0.007,0.64512 -0.2631,0.88619 -0.20269,0.22161 -0.0167,0.60057 0.28717,0.556 0.70442,0.0109 1.41251,0.0318 2.11502,-0.0208 0.29599,-0.0754 0.29524,-0.48162 0.051,-0.62119 -0.22224,-0.16118 -0.35114,-0.44621 -0.42526,-0.70881 -0.0668,-0.10537 -0.19648,-0.16385 -0.31971,-0.14519 z"
         id="path526" />
      <path
         style="fill:#da5fab;fill-opacity:1;stroke:#da5fab;stroke-width:0.00610438;stroke-linecap:round;stroke-dasharray:none;stroke-opacity:1"
         d="m 178.82746,33.678442 c -0.32445,0.0546 -0.32395,0.44677 -0.37477,0.70053 -0.36298,2.56226 -0.29348,5.17923 0.11666,7.73146 0.0944,0.52018 0.18836,1.04297 0.32907,1.55252 0.10536,0.28286 0.55756,0.25855 0.62846,-0.0362 0.001,-0.2516 0.23277,-0.49738 0.4976,-0.42692 0.18237,0.0746 0.45223,0.0589 0.50984,-0.16711 0.071,-0.21988 -0.10728,-0.42649 -0.16242,-0.634 -0.32315,-0.87581 -0.59339,-1.77707 -0.68653,-2.70215 -0.18727,-1.75815 0.12306,-3.56169 0.77125,-5.20782 0.13006,-0.21893 -0.0589,-0.54464 -0.32214,-0.47527 -0.2198,0.0579 -0.39363,0.32859 -0.64807,0.25103 -0.17813,-0.0511 -0.3053,-0.20469 -0.32787,-0.38651 -0.0524,-0.13081 -0.19063,-0.21469 -0.33108,-0.19953 z"
         id="path529" />
      <path
         style="fill:#da5fab;fill-opacity:1;stroke:#da5fab;stroke-width:0.00431645;stroke-linecap:round;stroke-dasharray:none;stroke-opacity:1"
         d="m 221.76756,31.712822 c -0.22945,0.051 -0.39064,0.24506 -0.58025,0.37144 -0.58462,0.47193 -1.12981,0.99506 -1.62487,1.56017 -0.22548,0.26432 -0.4517,0.63018 -0.29316,0.9846 0.12357,0.25002 0.3546,0.44885 0.61186,0.55167 0.30825,0.10018 0.58025,-0.1354 0.75661,-0.36164 0.30685,-0.40253 0.64375,-0.78978 1.06387,-1.07837 0.37155,-0.26737 0.77753,-0.44958 1.21408,-0.58458 0.20353,-0.0695 0.27011,-0.35859 0.10408,-0.50094 -0.21737,-0.16539 -0.55383,-0.0633 -0.75433,-0.27467 -0.19615,-0.15879 -0.052,-0.47717 -0.27702,-0.61475 -0.0634,-0.0455 -0.14412,-0.0611 -0.22087,-0.0529 z"
         id="path532" />
      <path
         style="fill:#da5fab;fill-opacity:1;stroke:#da5fab;stroke-width:0.00610438;stroke-linecap:round;stroke-dasharray:none;stroke-opacity:1"
         d="m 228.87618,40.978872 c -0.43608,0.0519 -0.67009,0.4809 -0.90174,0.80353 -0.13054,0.23333 -0.33023,0.44602 -0.39158,0.7084 -0.0307,0.23611 0.21584,0.36039 0.41936,0.36073 0.23149,0.0194 0.45405,0.11825 0.59406,0.30734 0.1951,0.18112 0.51603,0.0383 0.56271,-0.21071 0.14182,-0.49768 0.26264,-1.02447 0.19254,-1.54375 -0.0341,-0.23484 -0.22162,-0.44833 -0.47535,-0.42554 z"
         id="path530" />
      <path
         style="fill:#da5fab;fill-opacity:1;stroke:#da5fab;stroke-width:0.00610438;stroke-linecap:round;stroke-dasharray:none;stroke-opacity:1"
         d="m 227.8275,35.057162 c -0.25682,0.0284 -0.3427,0.34268 -0.19976,0.53394 0.39569,0.68726 0.77109,1.39587 0.96972,2.16871 0.10931,0.32412 0.21913,0.77197 0.61117,0.84525 0.35974,0.0309 0.52301,-0.37764 0.57223,-0.67002 0.11053,-0.88013 -0.0511,-1.76631 -0.26035,-2.61925 -0.0846,-0.23728 -0.40308,-0.25502 -0.55979,-0.0811 -0.20046,0.23335 -0.54871,0.16793 -0.75863,-0.0157 -0.10706,-0.0854 -0.22917,-0.17767 -0.37459,-0.16182 z"
         id="path531" />
      <path
         style="fill:#da5fab;fill-opacity:1;stroke:#da5fab;stroke-width:0.0086329;stroke-linecap:round;stroke-dasharray:none;stroke-opacity:1"
         d="m 231.19298,35.514522 c -0.32538,0.0678 -0.26844,0.43776 -0.20879,0.67644 0.21782,0.92512 0.18639,1.87629 0.13106,2.82244 -0.0235,0.5203 -0.15324,1.0322 -0.17721,1.54989 0.0219,0.33632 0.49413,0.40209 0.65239,0.12484 0.23187,-0.16413 0.53519,-0.12413 0.77448,-0.003 0.28271,0.0739 0.46285,-0.25265 0.37054,-0.4948 -0.27087,-1.32387 -0.1479,-2.65895 0.0946,-3.97948 0.0521,-0.23024 0.1085,-0.59898 -0.20429,-0.65995 -0.30255,-0.041 -0.50989,0.33101 -0.83032,0.21516 -0.22203,-0.0393 -0.35921,-0.29268 -0.60246,-0.2517 z"
         id="path533" />
      <path
         style="fill:#da5fab;fill-opacity:1;stroke:#da5fab;stroke-width:0.0086329;stroke-linecap:round;stroke-dasharray:none;stroke-opacity:1"
         d="m 257.37703,41.444452 c -0.34034,0.0455 -0.30108,0.43859 -0.31525,0.68442 -0.0111,0.31932 -0.36466,0.37997 -0.52237,0.59451 -0.16652,0.27429 0.13822,0.52852 0.40458,0.51289 0.35387,0.0332 0.715,0.0936 1.0188,0.27764 0.30851,0.0923 0.52827,-0.29182 0.35482,-0.53931 -0.16075,-0.31318 -0.0889,-0.67418 0.0426,-0.98249 0.0593,-0.373 -0.38788,-0.4037 -0.64629,-0.47556 -0.11281,-0.022 -0.21871,-0.0869 -0.33684,-0.0721 z"
         id="path534" />
      <path
         style="fill:#da5fab;fill-opacity:1;stroke:#da5fab;stroke-width:0.00610438;stroke-linecap:round;stroke-dasharray:none;stroke-opacity:1"
         d="m 140.31784,32.580012 c -0.21487,0.18895 -0.1145,0.50274 -0.15494,0.7529 -0.0269,0.83911 -0.37044,1.62575 -0.77709,2.34532 -0.11858,0.25485 0.18419,0.53056 0.4299,0.40009 0.20012,-0.10798 0.44061,-0.11312 0.65838,-0.0711 0.31991,0.13408 0.42691,0.48603 0.52345,0.78609 0.12401,0.25883 0.54473,0.21553 0.60662,-0.067 0.096,-0.50205 0.0824,-1.01734 0.14783,-1.51818 0.0599,-0.70962 0.17242,-1.42603 0.28013,-2.13416 0.0365,-0.27706 -0.29135,-0.47139 -0.52466,-0.33012 -0.25956,0.10133 -0.56626,0.0636 -0.77871,-0.12322 -0.11863,-0.0946 -0.27645,-0.11979 -0.41091,-0.0406 z"
         id="path524" />
      <path
         style="fill:#da5fab;fill-opacity:1;stroke:#da5fab;stroke-width:0.276;stroke-linecap:round;stroke-dasharray:none;stroke-opacity:1"
         d="m 128.67828,38.724692 c 0.16136,-0.23116 0.20191,-0.51532 0.10622,-0.74434 l -0.0811,-0.1941 0.71282,-0.0288 c 0.67849,-0.0274 1.19282,-0.14738 1.81337,-0.4231 0.0897,-0.0399 0.10272,-0.0107 0.10272,0.23064 0,0.23673 0.029,0.30527 0.20252,0.47881 0.12176,0.12176 0.17443,0.21219 0.13207,0.22676 -0.42774,0.14716 -2.69816,0.6155 -2.98382,0.6155 -0.11634,0 -0.11639,-0.002 -0.005,-0.16141 z"
         id="path523" />
      <path
         id="path217"
         style="fill:#eb0d7a;fill-opacity:1;stroke:#eb0d7a;stroke-width:0;stroke-dasharray:none;stroke-opacity:1"
         d="m 178.20281,6.2093324 c -0.0758,0.002 -0.15083,0.0154 -0.22265,0.043 -0.66194,0.25401 -1.87476,3.04332 -1.61329,3.71094 0.16153,0.4124196 0.32459,0.3432396 0.90039,-0.37305 1.25078,-1.55594 1.78071,-2.65128 1.5,-3.10547 -0.1105,-0.17882 -0.337,-0.28143 -0.56445,-0.27539 z m -0.0391,0.57812 c 0.0348,-0.004 0.0667,0.006 0.0918,0.0312 0.0958,0.0957 -0.0364,0.45187 -0.29297,0.79102 -0.21248,0.28086 -0.39512,0.41956 -0.45313,0.35937 -0.0101,-0.0128 -0.0191,-0.035 -0.0195,-0.0625 -0.007,-0.41606 0.43004,-1.09164 0.67383,-1.11914 z m -55.91797,3.8378896 c -1.94897,0.0604 -4.45584,0.65739 -6.47266,1.65821 -1.18551,0.58828 -1.49804,0.90949 -1.49804,1.54297 0,0.69333 0.16996,0.82031 1.27929,0.95898 1.48896,0.18612 1.83122,1.02911 0.95704,2.36328 -0.49709,0.75867 -0.48365,0.87043 0.26171,2.17774 0.56251,0.98666 0.74409,1.69845 0.63868,2.5 -0.11949,0.90871 0.0133,1.27096 0.70507,1.91992 0.70449,0.66093 1.14793,0.79315 2.55079,0.75976 2.13543,-0.0508 4.76969,-1.22282 6.38867,-2.84179 1.20524,-1.20524 1.20478,-1.20522 2.30273,-0.68164 1.26647,0.60394 3.67913,0.68843 4.69727,0.16406 0.38443,-0.198 1.01579,-0.64819 1.40234,-1 0.70282,-0.63965 0.70329,-0.63951 1.99805,0.46875 1.76387,1.5098 3.49386,2.01233 4.90234,1.42383 1.03288,-0.43157 2.79688,-2.19544 2.79688,-2.79688 0,-0.7719 0.57954,-0.16085 0.91797,0.96875 0.4562,1.52266 1.68737,3.05754 3,3.73633 0.91944,0.47546 1.68604,0.46879 2.85156,-0.0234 0.37327,-0.15764 0.59426,-0.0266 0.74219,0.43945 0.14989,0.47226 0.48012,0.66211 1.14843,0.66211 0.90373,0 0.93946,-0.0549 0.93946,-1.49219 0,-0.82081 0.24426,-2.76797 0.54297,-4.32617 0.50672,-2.64329 0.50696,-2.86803 0.01,-3.36523 -0.46688,-0.46688 -0.77636,-0.48729 -2.50391,-0.16602 -2.22886,0.4145 -2.36136,0.48858 -2.09765,1.17578 0.1288,0.33565 0.61597,0.49414 1.52148,0.49414 1.33218,0 1.3309,-6.2e-4 1.15039,1.35938 -0.1844,1.38937 -1.46728,2.86919 -2.78906,3.21484 -2.24825,0.58793 -4.38427,-3.89304 -3.06445,-6.42969 0.66553,-1.27912 1.93625,-2.34933 3.06445,-2.58007 0.54822,-0.11213 1.0272,-0.34744 1.0625,-0.52344 0.12447,-0.62098 -1.55419,-0.49271 -2.97656,0.22851 -1.10614,0.56088 -1.65799,1.13489 -2.37695,2.47657 -0.93596,1.74661 -0.93514,1.74634 -1.29297,0.68359 -0.49964,-1.48397 -2.30416,-3.53769 -3.57422,-4.06836 -1.40955,-0.58894 -3.39715,-0.15121 -4.61914,1.01953 -0.91203,0.87377 -0.91209,0.87383 -2.04493,0.01 -1.64157,-1.25209 -3.13261,-1.79101 -4.95507,-1.79101 -1.54621,0 -1.6267,0.0458 -2.25,1.26758 -0.35558,0.69698 -0.64649,1.83658 -0.64649,2.5332 0,1.89514 -0.24337,2.30574 -1.23437,2.08984 -1.7142,-0.37346 -1.7179,-0.38007 -0.86133,-1.64062 1.0583,-1.55743 1.10448,-3.37116 0.10352,-4.07227 -0.54077,-0.37877 -1.50836,-0.53432 -2.67774,-0.49805 z m 0.46875,0.38477 c 0.49982,0.001 0.85243,0.11809 1.40039,0.35156 1.51374,0.64497 1.56429,1.44583 0.2207,3.56445 -0.57348,0.90429 -0.86396,1.66533 -0.69726,1.83204 0.15677,0.15676 1.00983,0.36983 1.89453,0.47461 1.60856,0.1905 1.60922,0.19119 1.7793,-1.92774 0.23385,-2.91321 1.30096,-4.44033 2.72265,-3.89258 0.53333,0.20548 0.53334,0.23184 0,0.53125 -2.08486,1.17043 -1.99854,6.52863 0.12305,7.66407 1.50294,0.80435 4.33442,0.0882 5.06836,-1.28321 0.85827,-1.60369 0.10579,-4.12243 -1.6582,-5.54883 -0.29954,-0.24223 -0.45376,-0.37661 -0.4668,-0.41796 v -0.002 l -0.002,-0.002 v -0.002 -0.002 h 0.002 v -0.002 -0.002 h 0.002 l 0.002,-0.002 h 0.002 c 0.0321,-0.006 0.15708,0.0467 0.37109,0.15039 0.35397,0.17151 0.91669,0.61412 1.25,0.98242 0.78145,0.86349 1.09019,0.84346 2.11328,-0.13672 0.82719,-0.7925 2.87305,-1.61455 2.87305,-1.1543 0,0.12919 -0.4973,0.71718 -1.10547,1.30664 -1.47555,1.43017 -1.80849,2.45998 -1.28711,3.97657 0.51179,1.4887 1.18112,2.24508 2.57031,2.90429 1.36816,0.64923 2.46954,0.38162 3.50391,-0.84765 1.23287,-1.4652 0.90862,-4.19128 -0.73633,-6.19336 -0.0843,-0.10256 -0.12875,-0.16235 -0.13672,-0.18164 v -0.002 -0.002 -0.002 -0.002 h 0.002 l 0.002,0.002 c 0.0353,0.0157 0.2459,0.22329 0.58984,0.58984 1.16978,1.24666 1.8765,3.44651 1.56446,4.86719 -0.32048,1.45917 -1.62369,2.84948 -2.89453,3.08789 -1.32339,0.24827 -3.76561,-0.8209 -4.52539,-1.98047 -0.56541,-0.86293 -1.63084,-1.01269 -1.91602,-0.26953 -0.10418,0.2715 -0.77167,0.7907 -1.48437,1.1543 -1.55182,0.79168 -3.2513,0.6664 -4.66993,-0.34375 -0.95505,-0.68006 -0.95585,-0.67862 -2.17578,0.64257 -0.67096,0.72666 -1.92303,1.6785 -2.7832,2.11524 -0.86016,0.43673 -2.32514,0.87093 -3.25391,0.96679 -1.50421,0.15525 -1.7766,0.0867 -2.5,-0.63671 -0.67433,-0.67429 -0.7807,-1.01089 -0.62304,-1.98243 0.14828,-0.91378 0.0311,-1.38693 -0.53907,-2.1582 -0.68592,-0.92775 -0.6996,-1.0387 -0.22461,-1.82031 0.35852,-0.58996 0.72808,-0.80242 1.27149,-0.73438 1.07002,0.13398 4.87305,-2.43907 4.87305,-3.29687 0,-0.42041 -0.24886,-0.67491 -0.72266,-0.74219 -1.12264,-0.15942 -4.18223,0.57091 -4.74414,1.13281 -0.61299,0.613 -2.62061,0.72406 -3.08008,0.16993 -0.46481,-0.56059 2.56017,-1.90525 5.74609,-2.55274 1.13221,-0.23009 1.77948,-0.34475 2.2793,-0.34375 z m 99.56836,0.28125 c -0.18752,-6.9e-4 -0.38001,0.057 -0.56836,0.17773 -0.62638,0.40146 -0.63358,0.68805 -0.12891,4.74805 0.20145,1.62055 0.23675,2.98981 0.0801,3.14648 -0.38197,0.38197 -0.71096,-0.23239 -1.33008,-2.49414 -0.48935,-1.78768 -0.5913,-1.92382 -1.45312,-1.92382 -0.92731,0 -0.92789,7e-4 -1.08789,2.7207 -0.12527,2.1296 -0.26395,2.7207 -0.63867,2.7207 -0.62709,0 -1.2283,-1.88976 -1.48633,-4.66601 -0.14245,-1.53267 -0.33856,-2.21485 -0.63477,-2.21485 -0.64991,0 -0.86911,1.4096 -0.65429,4.19532 0.35367,4.58632 2.44418,7.0148 4.375,5.08398 0.82932,-0.82932 1.14954,-0.8069 2.29882,0.16016 1.16005,0.97611 1.58306,0.99801 2.3711,0.12304 0.54289,-0.60273 0.60434,-1.1536 0.55664,-5.03906 -0.0294,-2.39974 -0.18031,-4.78429 -0.33594,-5.29883 -0.27589,-0.91214 -0.80073,-1.43738 -1.36328,-1.43945 z m -22.7207,0.45117 c -0.44525,0.0141 -0.90842,0.0552 -1.37891,0.12109 -2.24237,0.31406 -2.73371,0.69566 -2.21094,1.7168 0.20455,0.39956 0.52404,2.02147 0.71094,3.60547 0.31898,2.7033 0.8147,5.11125 1.17383,5.69922 0.0868,0.14207 0.46826,0.21422 0.84765,0.16016 0.94822,-0.13513 1.05299,-1.29656 0.23438,-2.6211 -1.68643,-2.72871 -0.13298,-2.81145 3.70898,-0.19726 3.10561,2.11315 4.0839,2.35079 4.64063,1.1289 0.45884,-1.00705 0.23054,-1.28956 -2.63867,-3.25 -2.26789,-1.54958 -2.5458,-2.05491 -1.72461,-3.14062 0.64778,-0.85647 0.59865,-2.33007 -0.0899,-2.68555 -0.75938,-0.39209 -1.93769,-0.57953 -3.27343,-0.53711 z m 22.65625,0.16406 c 0.76511,0 0.87306,0.29563 1.32031,3.62305 0.45726,3.40188 0.42313,5.15029 -0.12695,6.4668 -0.58692,1.4047 -1.31086,1.42414 -2.67969,0.0703 -1.05153,-1.04 -1.05286,-1.03967 -1.83789,-0.13867 -1.78337,2.04681 -3.71791,0.0862 -3.88477,-3.93555 -0.0413,-0.99435 -0.0628,-1.51536 -0.0254,-1.57422 h 0.002 v -0.002 h 0.002 v -0.002 h 0.002 l 0.002,-0.002 0.002,0.002 h 0.002 0.002 v 0.002 c 0.0507,0.0462 0.16577,0.5379 0.37696,1.46289 0.57415,2.51471 1.00544,3.30664 1.80078,3.30664 0.93125,0 1.35411,-1.40822 1.12305,-3.73633 -0.12504,-1.25983 -0.0725,-2.05337 0.14453,-2.1875 0.56114,-0.3468 1.17928,0.41763 1.38671,1.71485 0.21166,1.3236 1.3738,3.27102 2.09376,3.50781 0.37454,0.12318 0.41303,-0.37658 0.23046,-3.01562 -0.12035,-1.73964 -0.30249,-3.70329 -0.40429,-4.36329 -0.16278,-1.05532 -0.10592,-1.19921 0.46875,-1.19921 z m -91.13477,0.32032 c 0.91157,0 3.21783,1.90137 3.69727,3.04882 0.63557,1.52114 0.57825,1.92337 -0.42578,3.03711 -1.78046,1.97503 -4.36567,1.40296 -5.20899,-1.15234 -0.67997,-2.06031 0.44901,-4.93359 1.9375,-4.93359 z m 58.58399,0 c -1.17347,0 -2.79201,1.75747 -3.0918,3.35546 -0.2332,1.24309 -0.11356,3.4603 0.34545,4.19707 0.0727,0.11673 0.34893,0.51292 0.60226,0.70483 0.44264,0.33532 0.93595,0.46876 1.01617,0.42259 0.14866,-0.0856 -0.90035,-1.18505 -1.11818,-1.59206 -0.50146,-0.93699 -0.4236,-3.76974 0.13281,-4.84571 0.45585,-0.88153 1.6215,-1.92382 2.15235,-1.92382 0.51642,0 0.21759,0.798 -0.63086,1.68359 -0.70812,0.73912 -0.8781,1.21176 -0.8711,2.41797 0.0129,2.20138 0.84328,3.64269 2.5918,4.49219 1.46566,0.71207 1.46607,0.71128 2.87891,0.0273 0.77706,-0.37617 1.63189,-0.60033 1.89844,-0.49805 0.43141,0.16556 0.42877,0.29088 -0.0137,1.14648 -0.27335,0.52862 -0.85421,1.05248 -1.29101,1.16211 -0.4368,0.10963 -2.0381,0.006 -2.0381,0.16272 0,0.59755 2.29086,0.56889 3.18849,-0.32873 1.03457,-1.03457 1.25287,-2.48385 0.42187,-2.80274 -0.28268,-0.10847 -1.14969,0.11224 -1.92773,0.49024 -1.77664,0.86312 -2.37047,0.86266 -3.47461,-0.006 -1.94903,-1.53311 -2.32574,-4.40434 -0.80469,-6.13672 1.24419,-1.417 1.25529,-2.12891 0.0332,-2.12891 z m 10.14648,0.0566 c 3.0306,-0.0577 3.85657,1.03971 2.25195,3.10742 -0.74966,0.96601 -0.57333,1.1947 2.53907,3.29492 1.86203,1.25649 2.3287,1.7291 2.25,2.2793 -0.16462,1.15074 -0.93027,0.93361 -3.79493,-1.07813 -3.18474,-2.23652 -4.79259,-2.70373 -5.31054,-1.54297 -0.13634,0.30556 -0.22018,0.4657 -0.28907,0.4375 -0.084,-0.0428 -0.14896,-0.37157 -0.25976,-1.06445 -0.26851,-1.67916 -0.17343,-1.84601 1.19922,-2.10352 0.60008,-0.11257 1.47107,-0.50378 1.93554,-0.86914 0.69373,-0.54568 0.77279,-0.7488 0.44922,-1.13867 -0.37069,-0.44666 -1.31606,-0.45943 -3.61718,-0.0508 -0.38911,0.0691 -0.66979,-0.0918 -0.73829,-0.42187 -0.0905,-0.43634 0.2619,-0.573 1.95118,-0.75391 0.52227,-0.0559 1.00065,-0.0874 1.43359,-0.0957 z m 9.61914,0.006 c -1.73166,0.11387 -2.5648,1.04758 -2.75391,3.01562 -0.12818,1.334 0.008,1.92307 0.81836,3.5293 0.53524,1.0603 1.49285,2.3827 2.12696,2.93945 0.6341,0.55675 1.47637,1.01172 1.87109,1.01172 1.0887,0 2.19246,-0.90885 2.07813,-1.71094 -0.0827,-0.58039 -0.27828,-0.67325 -1.23633,-0.58984 -0.89108,0.0776 -1.32583,-0.0895 -2.01172,-0.77539 -1.2945,-1.29451 -1.01647,-1.86341 0.9668,-1.97852 1.66064,-0.0964 2.73063,-0.76351 2.15234,-1.34179 -0.15995,-0.15995 -1.36957,-0.33413 -2.6875,-0.38672 -1.82783,-0.0729 -2.41522,-0.21003 -2.47852,-0.57618 -0.14583,-0.84339 0.44409,-1.35038 2.04102,-1.75585 2.12601,-0.53981 2.08052,-1.25299 -0.0879,-1.37891 -0.2848,-0.0165 -0.55145,-0.0182 -0.79883,-0.002 z m -32.94922,0.2539 c -0.29696,-0.004 -0.5634,0.0634 -0.7168,0.2168 -0.11779,0.1178 -1.40198,0.25612 -2.85351,0.30664 -1.45154,0.0505 -3.62509,0.25816 -4.83203,0.46094 -2.07178,0.34807 -2.24979,0.32736 -3.16016,-0.34571 -0.7995,-0.59109 -1.21555,-0.67778 -2.4414,-0.50976 -2.01111,0.27565 -2.96967,1.27367 -3.16407,3.29687 -0.19519,2.03139 0.89738,5.78328 1.98047,6.80078 0.69862,0.65633 0.98581,0.71691 2.45899,0.52149 2.41046,-0.31976 3.74037,-0.95743 3.97851,-1.90625 0.39578,-1.57691 -0.43818,-1.83162 -3.21875,-0.98438 -1.55272,0.47312 -1.61733,0.46742 -2.17383,-0.21484 -0.83348,-1.02184 -0.56375,-1.60652 0.97461,-2.11914 1.8657,-0.62169 1.89281,-1.51622 0.0391,-1.26758 -0.72568,0.0973 -1.51745,0.1008 -1.75977,0.008 -0.5425,-0.20818 -0.57804,-1.43563 -0.0566,-1.95703 0.60033,-0.60033 2.10962,-0.46689 2.47656,0.21875 0.47864,0.89434 1.00226,0.98083 2.92188,0.48242 0.9555,-0.24809 1.89704,-0.39088 2.09179,-0.3164 0.19476,0.0745 0.53845,1.76845 0.76368,3.76367 0.22522,1.99521 0.61503,4.0324 0.86523,4.52734 0.6555,1.29668 1.51096,1.02218 1.63867,-0.52539 0.0554,-0.67082 -0.0403,-1.38798 -0.21094,-1.5957 -0.54307,-0.66098 -1.46119,-5.97436 -1.0957,-6.33985 0.18065,-0.18065 0.95729,-0.4681 1.72656,-0.63672 0.76927,-0.16861 1.66915,-0.3877 2,-0.48828 0.55175,-0.16772 0.58194,-0.055 0.36914,1.3711 -0.1276,0.85511 -0.43439,2.04127 -0.68164,2.63476 -0.24725,0.5935 -0.44922,1.57361 -0.44922,2.17969 1e-5,0.60608 -0.15473,1.39513 -0.3457,1.75195 -0.41573,0.77681 -0.10831,2.28676 0.42969,2.10743 0.20931,-0.0698 0.60093,-0.86816 0.86914,-1.77344 0.57887,-1.95386 0.82301,-2.22926 2.08789,-2.36328 0.87831,-0.0931 1.03297,0.048 1.82813,1.6582 0.47803,0.968 0.92619,1.90408 0.99609,2.08008 0.0699,0.176 0.22922,0.22619 0.35352,0.11133 0.12428,-0.11487 0.073,-0.47565 -0.11524,-0.80079 -0.18822,-0.32513 -0.62498,-1.27532 -0.9707,-2.11132 -0.60311,-1.45839 -0.68089,-1.51953 -1.91992,-1.51953 -0.85105,0 -1.5033,0.21228 -1.91211,0.62109 -0.56232,0.56232 -0.63248,0.56988 -0.74414,0.0801 -0.0677,-0.29718 0.0501,-0.9018 0.26171,-1.3418 0.2116,-0.44 0.57214,-1.85685 0.80079,-3.15039 0.72804,-4.11873 1.80263,-3.42832 4.19921,2.69922 0.88659,2.26681 1.71173,4.07591 1.875,4.11719 h 0.002 0.002 0.002 0.002 0.002 0.002 v -0.002 h 0.002 c 9.6e-4,-6e-4 0.003,-0.001 0.004,-0.002 0.1039,-0.11936 -0.35245,-1.61874 -1.03125,-3.36914 -1.41992,-3.66155 -2.0606,-5.00618 -2.76758,-5.8125 -0.30515,-0.34804 -0.88787,-0.55541 -1.38281,-0.5625 z m 34.00781,0.0234 c 0.22309,-0.002 0.22795,0.0975 0.10352,0.29883 -0.10877,0.176 -0.46109,0.32031 -0.7832,0.32031 -0.96459,0 -2.01758,1.07333 -2.01758,2.05664 0,1.198 0.49652,1.44664 2.96094,1.49024 1.00545,0.0178 1.49673,0.0584 1.54882,0.13672 l 0.002,0.002 c 3.7e-4,9.5e-4 0.002,0.005 0.002,0.006 1.3e-4,9.7e-4 0,0.005 0,0.006 -2.4e-4,0.002 -0.001,0.008 -0.002,0.01 -0.0171,0.0362 -0.11036,0.0812 -0.27149,0.13281 -0.44,0.14091 -1.34,0.27152 -2,0.28906 -0.98313,0.0261 -1.19922,0.14808 -1.19922,0.68164 0,1.54784 2.23337,3.4381 3.56446,3.01563 0.51589,-0.16375 0.63147,-0.0837 0.54297,0.38281 -0.18367,0.96868 -1.91016,0.94248 -3.08594,-0.0469 -1.96909,-1.65688 -3.23099,-5.78754 -2.29883,-7.5293 0.17807,-0.33273 0.86356,-0.75478 1.52148,-0.9375 0.74832,-0.20782 1.18903,-0.31213 1.41211,-0.31445 z m -69.97265,0.29883 c 0.96759,0 2.59516,1.88497 3.0332,3.51172 0.38897,1.44452 -0.1392,2.91982 -1.25976,3.51953 -0.8963,0.47969 -1.65036,0.40546 -2.76368,-0.27344 -1.03288,-0.62984 -2.05273,-2.38348 -2.05273,-3.52539 0,-0.95213 2.14635,-3.23242 3.04297,-3.23242 z m -18.42578,0.3457 c 0.40061,0.0268 0.66211,0.11691 0.66211,0.28711 0,0.17133 -0.75414,0.81878 -1.67579,1.43946 -0.92164,0.62067 -1.92737,1.1289 -2.23437,1.1289 -0.58578,0 -1.10498,-1.31311 -0.74805,-1.89062 0.34679,-0.56111 2.79425,-1.04509 3.9961,-0.96485 z m 41.07031,0 c 0.61966,0.0138 1.18546,0.16019 1.51562,0.45899 0.63229,0.57226 1.96878,0.56973 7.19532,-0.01 0.61,-0.0676 0.93065,-0.10219 0.97656,-0.0781 h 0.002 v 0.002 h 0.002 v 0.002 0.002 h 0.002 v 0.002 l -0.002,0.002 v 0.002 c -0.0327,0.0401 -0.31282,0.14004 -0.82032,0.31836 -0.616,0.21644 -1.33047,0.5298 -1.58789,0.69531 -0.25742,0.16551 -1.1935,0.31588 -2.08008,0.33594 -0.88658,0.0201 -2.05097,0.14969 -2.58789,0.28711 -0.85576,0.21901 -1.0231,0.14704 -1.35351,-0.57813 -0.44505,-0.97679 -1.75038,-1.11917 -2.89649,-0.3164 -1.0556,0.73936 -0.88114,2.73419 0.26563,3.0332 0.66003,0.17209 0.70723,0.24874 0.26562,0.4375 -0.81054,0.34646 -0.94695,1.05804 -0.4375,2.27734 0.53071,1.27017 1.26279,1.39564 3.74414,0.64258 0.81993,-0.24884 1.57562,-0.36775 1.67969,-0.26367 0.46926,0.46925 0.11121,1.31642 -0.6914,1.63672 -1.54479,0.61648 -3.44839,0.91738 -4.1543,0.65625 -1.84215,-0.68144 -3.11272,-6.92499 -1.75195,-8.60547 0.49968,-0.61708 1.68207,-0.96243 2.71484,-0.93945 z m -6.04102,0.084 c -0.0378,10e-4 -0.0789,0.0196 -0.12304,0.0469 -0.36597,0.22619 -0.0343,8.73427 0.37109,9.52344 0.35494,0.69096 1.09064,0.7299 1.34375,0.0703 0.10354,-0.26983 -0.0983,-2.25022 -0.44922,-4.40039 -0.72231,-4.42545 -0.87816,-5.24974 -1.14258,-5.24023 z m 42.33594,0.57227 c 0.94426,0.0114 0.96065,0.39389 -0.0781,0.86719 -1.17945,0.53739 -1.80977,0.46601 -1.68555,-0.18946 0.0742,-0.39136 0.46595,-0.58879 1.30273,-0.6582 0.17243,-0.0143 0.32605,-0.0212 0.46094,-0.0195 z m -22.85351,1.93164 c -0.0618,0.003 -0.12429,0.0156 -0.18555,0.0391 -0.54681,0.20983 -1.06387,2.20601 -0.7168,2.76758 0.24135,0.3905 0.38181,0.40431 1.37305,0.13867 0.5206,-0.13952 0.71875,-0.43177 0.71875,-1.05469 0,-1.02449 -0.59183,-1.91842 -1.18945,-1.89062 z m -22.16797,0.29102 c 0.72364,0.004 0.70051,0.2064 0.5039,1.8164 -0.12358,1.012 -0.29601,2.55945 -0.38281,3.43945 -0.0868,0.88 -0.22504,1.92432 -0.30664,2.32032 -0.18836,0.91399 -0.56923,0.9135 -1.17578,0 -0.44736,-0.67377 -0.55109,-0.69244 -1.65039,-0.29492 -1.0426,0.377 -1.306,0.35609 -2.36133,-0.1875 -1.35446,-0.69768 -2.48203,-2.4847 -2.77344,-4.39844 -0.0838,-0.55 -0.13169,-0.86365 -0.10742,-0.91406 l 0.002,-0.002 0.002,-0.002 0.002,-0.002 h 0.002 0.002 0.002 0.002 l 0.002,0.002 c 0.0568,0.0424 0.22222,0.44811 0.54687,1.25781 1.12773,2.81265 2.60385,3.80184 4.50195,3.01562 2.07561,-0.85974 3.59919,-4.10867 2.35352,-5.01953 -0.3123,-0.22836 -0.93636,-0.42972 -1.38672,-0.44726 -0.37102,-0.0144 -0.5748,-0.0226 -0.61133,-0.0508 l -0.002,-0.002 -0.002,-0.002 v -0.002 h -0.002 v -0.002 -0.002 -0.002 l 0.002,-0.002 v -0.002 l 0.002,-0.002 c 0.0322,-0.0377 0.23125,-0.10266 0.59375,-0.21875 0.44,-0.14092 1.28814,-0.27153 1.88476,-0.28907 0.1356,-0.004 0.25405,-0.008 0.35743,-0.008 z m 22.15625,0.4375 c 0.38686,-0.0155 0.96364,1.06858 0.71875,1.46484 -0.10653,0.17236 -0.40264,0.31445 -0.65625,0.31445 -0.51714,0 -0.6462,-1.4472 -0.15625,-1.75 0.0294,-0.0182 0.061,-0.028 0.0937,-0.0293 z m -6.36719,0.55468 c 0.0302,-0.003 0.0649,0.0141 0.10156,0.0508 0.11733,0.11734 0.11733,0.30845 0,0.42578 -0.11734,0.11734 -0.21289,0.0218 -0.21289,-0.21289 0,-0.16133 0.0448,-0.25768 0.11133,-0.26367 z m -47.41598,1.60739 c -0.53685,-0.0224 -1.13514,-0.009 -1.77734,0.0449 -2.4912,0.20926 -2.99679,0.70764 -2.47852,2.4375 0.3662,1.22225 0.45432,1.29297 1.625,1.29297 1.66703,0 5.29688,-1.85995 5.29688,-2.71485 0,-0.60235 -1.05545,-0.99347 -2.66602,-1.06055 z m 47.75782,0.0723 h 0.002 0.002 0.002 0.002 0.002 c 8.5e-4,3.8e-4 0.003,10e-4 0.004,0.002 0.0378,0.0299 0.10103,0.20512 0.1875,0.50195 0.17943,0.616 0.55285,1.64491 0.83008,2.28711 0.33956,0.78659 0.40586,1.3424 0.20507,1.70117 -0.52258,0.9338 -0.97977,-0.12031 -1.17773,-2.70898 -0.0869,-1.13583 -0.11428,-1.6907 -0.0684,-1.77344 l 0.002,-0.002 0.002,-0.002 0.002,-0.002 0.002,-0.002 z m -48.44532,0.51562 c 1.14442,0.0193 2.25559,0.11534 2.50196,0.27149 0.587,0.37204 -1.11351,1.56773 -3.0625,2.15429 -1.8747,0.5642 -1.92144,0.56223 -2.31641,-0.17578 -0.48428,-0.90489 -0.40391,-1.84396 0.17578,-2.06641 0.37939,-0.14558 1.55676,-0.2029 2.70117,-0.18359 z m 75.57618,0.42383 c 0.003,-6.4e-4 0.008,-5.8e-4 0.0117,0 0.072,0.0187 0.23898,0.25805 0.53516,0.68555 0.36581,0.528 0.66697,1.21153 0.66797,1.51953 0.002,0.56498 -0.47281,0.76491 -0.75,0.3164 -0.0824,-0.13334 -0.24824,-0.81687 -0.36719,-1.51953 -0.10306,-0.60884 -0.15703,-0.92732 -0.11328,-0.99023 7.7e-4,-9e-4 0.005,-0.005 0.006,-0.006 l 0.002,-0.002 c 9.3e-4,-4.9e-4 0.005,-0.002 0.006,-0.002 z m -39.95704,0.95117 c 0.051,-0.004 0.128,0.10321 0.24415,0.30274 0.36585,0.62853 0.2707,2.03637 -0.11133,1.64843 -0.13197,-0.13404 -0.23547,-0.6878 -0.23047,-1.23047 0.004,-0.4568 0.023,-0.68446 0.084,-0.71679 8.9e-4,-3.9e-4 0.005,-0.002 0.006,-0.002 9.3e-4,-2.3e-4 0.005,1.4e-4 0.006,0 z" />
      <path
         id="path217-2"
         style="fill:#da5fab;stroke:#da5fab;stroke-width:1.3;stroke-dasharray:none;stroke-opacity:1"
         d="m 93.753722,20.404552 c -3.95301,0.009 -7.89546,1.35566 -11.06836,3.78125 -1.5238,1.16491 -1.59737,1.29078 -1.53907,2.63867 0.67407,15.58725 1.25054,24.75708 1.59375,25.33594 0.07827,0.13201 1.79532,0.24024 3.81446,0.24024 2.90557,0 3.70724,-0.097 3.84765,-0.46289 0.09757,-0.25427 -0.05352,-1.80172 -0.33593,-3.43946 -0.2824,-1.63774 -0.60338,-4.45521 -0.71485,-6.25976 -0.17859,-2.89124 -0.13459,-3.35684 0.375,-3.91993 0.31806,-0.35145 0.74327,-0.63867 0.94531,-0.63867 0.20203,0 1.51147,-0.55394 2.91016,-1.23242 6.04352,-2.93163 9.494678,-8.13191 7.998058,-12.05078 -0.98231,-2.5721 -3.782408,-4.00129 -7.826178,-3.99219 z m 93.537108,2.91992 c -1.35681,0.0209 -2.72786,0.73327 -4.03515,2.13086 -1.7191,1.83786 -3.3825,5.17425 -3.64649,7.31446 -0.19121,1.55005 -0.19055,1.55023 0.98242,-0.14649 2.15846,-3.12226 4.70304,-3.79981 7.50782,-2 1.0909,0.70003 2.03741,1.00207 3.67578,1.16992 2.20715,0.22613 2.20854,0.22556 1.98633,-1.16406 -0.30442,-1.90373 -1.99405,-4.96155 -3.36524,-6.0918 -1.00335,-0.82704 -2.05017,-1.22917 -3.10547,-1.21289 z m -50.32226,0.79102 c -0.17771,0.008 -0.38302,0.15309 -0.73438,0.45117 -0.31139,0.26415 -0.46144,0.41555 -0.45703,0.4707 v 0.002 0.002 0.002 l 0.002,0.002 v 0.002 l 0.002,0.002 0.002,0.002 0.002,0.002 c 0.0302,0.0184 0.99697,1.70267 1.15089,1.64894 0.41741,-0.14574 -0.24225,-1.71443 -0.11378,-1.22316 0.15075,0.57646 0.41469,1.38721 1.71875,1.38721 1.70016,0 3.88917,-1.10874 3.88917,-1.61719 0,-0.18702 -1.52008,-0.36768 -2.60206,-0.36768 -1.24967,0 -2.05862,-0.16213 -2.37109,-0.47461 -0.19648,-0.19647 -0.33148,-0.29771 -0.48828,-0.29101 z m -45.525398,1.4707 c 1.59723,0.10294 2.65276,0.6414 3.26562,1.64649 0.69173,1.13441 0.82884,3.67761 0.25782,4.78906 -0.53087,1.0333 -1.92246,2.45285 -2.90625,2.9668 -1.71773,0.89738 -3.97374,0.23515 -4.71094,-1.38282 -0.42671,-0.93646 -0.4579,-7.33759 -0.03711,-7.59765 0.16883,-0.10434 1.2263,-0.27596 2.34961,-0.38086 0.65635,-0.0613 1.24884,-0.0753 1.78125,-0.041 z m 77.322268,1.85352 c -0.088,0 -0.16015,0.0721 -0.16015,0.16015 0,0.088 -0.0109,3.31449 0.16015,0.16016 0.005,-0.0879 0.16016,-0.0722 0.16016,-0.16016 0,-0.088 -0.0722,-0.16015 -0.16016,-0.16015 z m -6.28906,1.94921 c -0.79599,0.0283 -3.47284,0.67494 -3.62305,0.91798 -0.0894,0.14459 0.0652,1.75455 0.34375,3.57812 0.27856,1.82357 0.63706,5.83602 0.79493,8.91602 0.36468,7.1149 0.36824,7.15524 0.75976,7.42578 0.31161,0.21533 1.75271,0.009 2.09375,-0.30078 0.17737,-0.16094 0.0237,-20.32785 -0.15625,-20.50783 -0.0242,-0.0242 -0.0992,-0.0333 -0.21289,-0.0293 z m -31.80664,0.7129 c -0.32995,0.001 -0.64871,0.0184 -0.94531,0.0508 -2.59362,0.28277 -4.66506,0.82074 -4.83203,1.25586 -0.0756,0.19703 0.15322,0.92752 0.50781,1.62304 0.3546,0.69553 0.64458,1.55723 0.64258,1.91602 -0.007,1.36916 -1.51822,3.8868 -3.20703,5.3418 -1.70311,1.46736 -1.70408,1.46791 -1.64258,3.34961 0.0749,2.29015 0.64853,6.36613 1.04101,7.39843 0.25902,0.68125 0.45267,0.74746 1.96875,0.66016 1.68154,-0.0968 1.68154,-0.0967 1.5625,-5.88476 -0.0777,-3.77842 0.002,-6.01341 0.22852,-6.4375 0.19122,-0.3573 0.81785,-0.74443 1.39258,-0.85938 1.04501,-0.209 1.04533,-0.20932 0.0117,-0.83789 -0.95569,-0.58116 -1.03135,-0.75487 -1.02735,-2.3125 0.003,-0.92659 0.18103,-2.0359 0.39844,-2.46484 1.15025,-2.26948 6.95508,-0.95574 6.95508,1.57421 0,0.30186 -0.44183,1.15999 -0.98242,1.90625 -0.94393,1.30306 -0.95368,1.34811 -0.24024,1.12696 1.58096,-0.49004 3.75089,-1.7643 4.39258,-2.58008 0.87727,-1.11527 0.85456,-2.40374 -0.0566,-3.25977 -0.92133,-0.86556 -3.85833,-1.57573 -6.16797,-1.5664 z m 10.57617,1.17773 c -0.48199,0 -0.65784,0.67615 -0.27539,1.0586 0.29863,0.29864 0.75391,-0.0631 0.75391,-0.59766 0,-0.25361 -0.21452,-0.46094 -0.47852,-0.46094 z m 83.63086,0.008 c -0.79545,-0.0427 -1.57924,0.10623 -2.05078,0.4629 -0.5729,0.4333 -0.49407,0.47146 0.99805,0.48046 1.69553,0.0107 3.20752,0.81937 4.21093,2.25196 0.26176,0.3737 0.5407,0.6136 0.6211,0.5332 0.31055,-0.31055 -0.81552,-2.38123 -1.6543,-3.04102 -0.5211,-0.4099 -1.32955,-0.64483 -2.125,-0.6875 z m 34.17969,0.33008 c -1.55758,0.0685 -3.20071,0.81553 -4.45899,2.14063 -0.65773,0.69265 -0.94264,1.38522 -1.09179,2.66797 -0.11086,0.95334 -0.41029,2.05645 -0.66602,2.45117 -0.52814,0.81519 -0.31574,2.15945 0.48047,3.04297 0.50005,0.55488 2.10879,0.74589 3.0957,0.36718 0.44108,-0.16926 0.42555,-0.29406 -0.13281,-1.0039 -1.21329,-1.54245 -0.60749,-5.50474 0.91602,-5.98828 0.87996,-0.27929 2.07766,0.27648 2.56836,1.19336 0.5731,1.07085 2.85438,1.50887 3.4707,0.66601 0.92491,-1.2649 0.0799,-3.89774 -1.57422,-4.90625 -0.77,-0.46945 -1.67288,-0.67193 -2.60742,-0.63086 z m -143.57031,0.49414 c -4.68546,0.0406 -5.44141,0.31895 -5.44141,2.00782 0,0.95133 0.2921,1.64647 1.20117,2.86718 0.66,0.88626 1.38337,1.87395 1.60938,2.19336 0.34413,0.48639 0.38895,0.14675 0.26953,-2.08789 -0.1426,-2.66816 -0.14277,-2.66744 0.93359,-3.11719 1.47515,-0.61634 2.5991,-0.15295 3.21875,1.33008 0.55571,1.33001 0.2167,2.86649 -0.84375,3.82617 -0.34537,0.31257 -0.6289,0.67796 -0.6289,0.8125 0,0.38295 2.03755,-0.27561 3.6621,-1.18359 2.62137,-1.46511 3.81033,-3.84158 2.49805,-4.99219 -1.60857,-1.41041 -2.69734,-1.68905 -6.47851,-1.65625 z m 101.4375,0.29102 c -0.28943,0.008 -0.71332,0.0915 -1.14454,0.23437 -1.11112,0.36821 -1.24715,0.52422 -1.19335,1.36914 0.0334,0.52465 0.1631,2.41319 0.2871,4.19727 0.21911,3.1524 0.2055,3.25032 -0.47656,3.4668 -1.24001,0.39357 -2.17562,-0.62477 -4.02539,-4.38477 -0.97067,-1.97306 -1.76562,-3.77492 -1.76562,-4.00391 0,-0.96724 -2.63597,-1.17873 -2.9961,-0.24023 -0.0883,0.2301 0.2065,1.47697 0.65625,2.76953 1.03731,2.98123 0.90585,5.71878 -0.40625,8.39844 -0.9503,1.94078 -0.76253,2.75195 0.64063,2.75195 1.10479,0 1.46484,-0.63641 1.46484,-2.58593 0,-3.4916 1.72384,-3.42427 4.14258,0.16015 0.87788,1.30097 1.78196,2.44767 2.00781,2.54883 0.49372,0.22114 3.61858,0.007 4.08203,-0.2793 0.18052,-0.11157 0.32779,-1.09398 0.32813,-2.18359 8.4e-4,-2.61833 -0.94818,-11.83224 -1.25195,-12.15039 -0.0491,-0.0515 -0.17596,-0.0735 -0.34961,-0.0684 z m -68.09375,0.47851 c -0.67203,0 -4.49348,1.48947 -5.10547,1.99024 -0.29723,0.24322 -0.39844,2.07876 -0.39844,7.14258 0,3.74805 0.0865,7.04191 0.19336,7.32031 0.10683,0.27839 0.4651,0.50586 0.79492,0.50586 0.65963,0 0.78764,-0.39483 1.09766,-3.35938 0.11044,-1.056 0.54189,-2.67561 0.95898,-3.59961 0.60913,-1.34945 0.91038,-1.68164 1.52735,-1.68164 1.47222,0 2.19111,1.52599 2.77734,5.89844 0.18717,1.39601 0.4114,2.61062 0.5,2.69922 0.0886,0.0886 0.77088,0.26144 1.51562,0.38281 1.78851,0.29147 4.87588,0.35266 5.12696,0.10156 8.5e-4,-8.5e-4 10e-4,-0.003 0.002,-0.004 0.0903,-0.12763 -0.36851,-0.87411 -1.03516,-1.67578 -1.77672,-2.13658 -2.93541,-4.37395 -5.07812,-9.80078 -1.04236,-2.64 -1.98162,-5.05333 -2.08789,-5.36133 -0.10626,-0.308 -0.46188,-0.5586 -0.78906,-0.5586 z m 49.38086,0.0156 c -0.65875,0.0342 -1.20571,0.24285 -1.53125,0.62305 -0.38708,0.45208 -0.94728,0.64153 -1.91016,0.64453 -1.80915,0.006 -2.18023,0.29458 -2.39063,1.86328 -0.19032,1.41892 -0.16295,1.44641 1.74219,1.77539 0.89629,0.15478 1.20633,0.008 2.29492,-1.0918 0.96946,-0.9792 1.50382,-1.26962 2.32422,-1.26562 1.24438,0.006 1.63477,0.22021 2.13672,1.17383 0.54122,1.02824 0.44886,2.5267 -0.23828,3.87304 -0.78293,1.534 -1.52943,2.18546 -2.91406,2.54102 -0.89484,0.22978 -1.11914,0.44348 -1.11914,1.0664 0,0.60267 0.25339,0.86933 1.11914,1.17383 2.21974,0.78072 4.1514,-0.11259 5.36133,-2.48047 1.67425,-3.27658 0.27452,-8.2357 -2.67188,-9.46679 -0.77333,-0.32312 -1.54438,-0.46391 -2.20312,-0.42969 z m 42.96289,0.0117 c -0.4118,0.0136 -0.48157,0.87354 -0.18164,2.48633 0.28802,1.54931 0.28715,2.5299 -0.008,4.25 -0.55774,3.25253 -1.54013,4.98602 -3.35742,5.92578 -1.82158,0.94197 -4.30516,-0.75102 -5.02539,-3.42578 -0.40414,-1.50085 -0.82602,-1.62326 -1.11133,-0.32422 -0.1415,0.64423 -0.005,1.32408 0.4336,2.16015 0.35228,0.67098 1.04104,2.06168 1.52929,3.08985 0.48824,1.02817 1.32435,2.21288 1.85938,2.63476 0.6483,0.51118 1.39225,0.76949 2.22851,0.77149 1.8734,0.005 3.75523,-2.06514 4.72071,-5.19141 1.16522,-3.77301 0.80194,-10.97586 -0.61328,-12.15039 -0.18942,-0.1572 -0.34856,-0.23072 -0.47461,-0.22656 z m 9.45117,0.1875 c -1.54718,0.0551 -4.4081,0.47736 -4.74024,0.79297 -0.18501,0.17582 -0.32027,2.28851 -0.32031,5.00781 -6e-5,4.0137 -0.10436,5.02436 -0.71875,6.89648 -0.39596,1.20654 -0.7207,2.97047 -0.7207,3.91993 0,1.02234 0.14112,1.72656 0.3457,1.72656 1.58747,0 6.58352,-0.79862 6.76953,-1.08203 0.12931,-0.19701 0.23724,-0.62516 0.24024,-0.95313 0.005,-0.65513 -0.49334,-0.63002 -3.12891,0.16211 -2.13399,0.64139 -2.47428,0.25443 -2.42578,-2.75195 0.0224,-1.38936 0.20205,-2.62556 0.41211,-2.83789 0.20475,-0.20696 1.26444,-0.52113 2.35547,-0.69727 1.54021,-0.24866 2.00951,-0.45416 2.09961,-0.92187 0.10054,-0.52206 -0.007,-0.56827 -0.79688,-0.33985 -0.50142,0.14497 -1.4874,0.27271 -2.1914,0.28321 -1.28004,0.0191 -1.27965,0.0201 -1.18555,-1.41993 0.0517,-0.792 0.44433,-2.20702 0.87305,-3.14453 0.77948,-1.70458 0.78027,-1.70473 2.29882,-1.61132 1.51855,0.0934 1.51878,0.0936 1.79297,-1.29297 0.1509,-0.76259 0.15427,-1.50705 0.008,-1.65235 -0.0819,-0.0813 -0.45107,-0.10235 -0.96679,-0.084 z m -18.71289,0.10351 c -0.59991,0 -0.76993,0.75103 -0.39258,1.73438 0.29369,0.76532 0.66774,0.61139 1.0293,-0.42578 0.36157,-1.0372 0.22941,-1.3086 -0.63672,-1.3086 z m 41.0957,1.4375 c -0.52065,-0.0638 -1.45015,-0.0385 -3.17187,0.0273 -2.03461,0.0778 -3.81342,0.21047 -3.95313,0.29687 -0.44595,0.27561 -0.0611,2.44143 0.50781,2.85742 0.51728,0.37846 0.51812,0.70484 -0.004,5.8125 -0.30411,2.97552 -0.62976,5.94938 -0.72266,6.60938 -0.16411,1.1656 -0.14032,1.19922 0.82617,1.19922 0.82789,0 0.9961,-0.12348 0.9961,-0.74219 0,-0.40899 0.21464,-2.03055 0.47851,-3.60156 0.26387,-1.57102 0.60432,-4.25642 0.75586,-5.96875 0.15154,-1.71234 0.45755,-3.33195 0.67969,-3.59961 0.27666,-0.33337 0.98813,-0.48828 2.26172,-0.48828 1.57821,0 1.89008,-0.0954 2.0625,-0.63867 0.1121,-0.352 0.11589,-0.91924 0.008,-1.25977 -0.0915,-0.28816 -0.20396,-0.44006 -0.72461,-0.50391 z m -132.77148,1.69141 c -0.31516,0.008 -0.82086,0.49858 -1.63086,1.28125 -2.15995,2.08712 -2.1603,2.08746 -2.1543,6.2793 0.003,2.30551 0.11571,4.59488 0.25,5.08789 0.23256,0.8538 0.32358,0.89258 1.91406,0.80078 1.66979,-0.0964 1.67044,-0.0971 1.88672,-1.53711 0.11896,-0.792 0.22724,-3.97865 0.24024,-7.08008 0.0148,-3.52434 0.0194,-4.84597 -0.50586,-4.83203 z m -35.75586,1.04492 c -0.54871,-0.0211 -1.1741,0.003 -1.91407,0.0625 -7.189068,0.57707 -9.500098,8.28334 -3.408208,11.36524 3.607948,1.82526 8.255958,0.13682 10.134778,-3.67969 1.19541,-2.4283 0.89174,-4.22279 -1.02539,-6.06445 -1.19617,-1.14907 -2.141,-1.6203 -3.78711,-1.6836 z m 87.69922,2.54688 c -0.94725,0 -1.06849,0.12569 -1.61329,1.67968 -1.13552,3.23896 -3.12432,5.03707 -5.57617,5.03907 -1.73098,0.002 -2.9057,-0.59931 -4.1875,-2.14453 -0.55831,-0.67305 -0.80788,-0.97374 -0.88281,-0.94336 -9.9e-4,5.5e-4 -0.005,0.003 -0.006,0.004 l -0.002,0.002 c -0.0417,0.0503 0.007,0.28609 0.0937,0.68359 0.50568,2.31541 2.19966,4.64864 4.06054,5.59375 3.11278,1.58094 6.90983,-0.74307 8.43165,-5.16016 0.25796,-0.74874 0.88992,-1.98589 1.40429,-2.74804 0.93521,-1.38572 0.93366,-1.3849 0.11719,-1.69532 -0.44906,-0.17073 -1.27661,-0.31054 -1.83984,-0.31054 z m -90.38672,0.0137 c 0.72534,-0.0102 1.43884,0.2455 2.14648,0.76758 1.49019,1.09943 1.98451,1.9177 2.00391,3.32617 0.021,1.51877 -0.55306,2.47006 -1.86328,3.0918 -1.87335,0.88896 -3.28904,0.52377 -4.851568,-1.25586 -1.30209,-1.48298 -1.43807,-3.53428 -0.30274,-4.56836 0.98342,-0.89572 1.934608,-1.34815 2.867198,-1.36133 z m 123.43164,1.99995 c -0.26755,-8.7e-4 -0.42594,0.56755 -0.35157,1.58984 0.0919,1.26403 0.003,1.52131 -0.64062,1.87305 -0.41067,0.2244 -1.32334,0.48834 -2.02734,0.58594 -1.20185,0.16669 -1.28586,0.24773 -1.37696,1.33789 -0.0832,0.9957 0.0127,1.18904 0.66797,1.35351 0.85285,0.21405 2.05233,-0.0764 3.80078,-0.91992 1.43343,-0.69156 2.00681,-0.49926 2.86719,0.95899 1.32465,2.24511 1.67781,0.88049 0.58594,-2.26368 -0.361,-1.03955 -0.59674,-2.21571 -0.52344,-2.61523 0.12221,-0.66637 0.0444,-0.70923 -0.93555,-0.52539 -0.93572,0.17554 -1.115,0.0952 -1.45117,-0.64258 -0.22639,-0.49689 -0.44373,-0.73186 -0.61523,-0.73242 z m 34.28515,0.22656 c -1.19679,0 -1.22156,0.26387 -0.16797,1.81641 0.98911,1.45754 0.85231,2.4426 -0.51367,3.70312 -1.22625,1.13158 -2.04101,1.11133 -3.23242,-0.0801 -1.32501,-1.32502 -1.87109,-1.25124 -1.87109,0.25 0,1.35584 0.68738,2.5385 1.71484,2.95313 0.37717,0.1522 1.45684,0.28567 2.39844,0.29687 1.52293,0.0181 1.82712,-0.0966 2.76562,-1.03515 1.13157,-1.13157 1.75677,-2.83864 1.75977,-4.8086 0.002,-1.58395 -1.39099,-3.0957 -2.85352,-3.0957 z m -145.87109,2.29297 c -0.23957,0.0198 -0.53223,0.56992 -1.03516,1.78711 -0.43788,1.05975 -1.44393,2.5641 -2.37304,3.54883 -1.54013,1.63234 -1.58589,1.73031 -0.99805,2.16015 0.33865,0.24762 1.10094,0.45118 1.69336,0.45118 1.51537,0 3.84777,-0.63204 4.02344,-1.08985 0.1667,-0.4344 -0.55344,-5.49012 -0.9043,-6.34961 -0.13862,-0.33957 -0.26251,-0.51971 -0.40625,-0.50781 z" />
      <path
         style="fill:#eb0d7a;stroke:#eb0d7a;stroke-width:0.393254;stroke-dasharray:none;stroke-opacity:1"
         d="m 153.07583,23.666872 c -0.44736,-0.67376 -0.55183,-0.69242 -1.65113,-0.29491 -1.0426,0.37701 -1.30612,0.35608 -2.36145,-0.18752 -1.35446,-0.69767 -2.48066,-2.48456 -2.77207,-4.3983 -0.19491,-1.28 -0.19491,-1.28 0.45439,0.3394 1.12773,2.81265 2.60437,3.80157 4.50247,3.01535 2.07561,-0.85975 3.59848,-4.10869 2.35281,-5.01955 -0.3123,-0.22836 -0.9363,-0.42955 -1.38666,-0.44709 -0.81884,-0.0319 -0.81884,-0.0319 -0.0188,-0.28811 0.44,-0.14091 1.28815,-0.27055 1.88477,-0.2881 1.08477,-0.0319 1.08477,-0.0319 0.86008,1.8081 -0.12358,1.012 -0.2957,2.56 -0.38248,3.44 -0.31876,3.23225 -0.59226,3.66058 -1.48189,2.32073 z m -34.5978,-0.32896 c -0.67429,-0.67428 -0.77989,-1.01072 -0.62223,-1.98225 0.14828,-0.91378 0.0299,-1.3865 -0.54031,-2.15777 -0.68592,-0.92775 -0.69953,-1.03808 -0.22454,-1.81969 0.35852,-0.58996 0.72865,-0.80413 1.27206,-0.7361 1.07002,0.13398 4.87234,-2.43815 4.87234,-3.29596 0,-0.42041 -0.24747,-0.67514 -0.72127,-0.74242 -1.12264,-0.15942 -4.18218,0.57159 -4.74409,1.1335 -0.61299,0.61299 -2.62173,0.72323 -3.0812,0.16909 -0.46481,-0.56058 2.56119,-1.90401 5.74711,-2.55149 2.26442,-0.46021 2.58352,-0.45957 3.67945,0.007 1.51374,0.64496 1.56307,1.44615 0.21948,3.56477 -0.57348,0.90428 -0.8622,1.66445 -0.6955,1.83115 0.15677,0.15677 1.00888,0.37076 1.89358,0.47554 1.60856,0.19051 1.60856,0.19051 1.77864,-1.92842 0.23385,-2.91322 1.30211,-4.43956 2.7238,-3.89181 0.53333,0.20548 0.53333,0.23073 -1e-5,0.53014 -2.08486,1.17043 -1.99951,6.52965 0.12208,7.66509 1.50294,0.80435 4.33451,0.0866 5.06845,-1.28479 0.85827,-1.6037 0.1054,-4.12243 -1.65859,-5.54883 -0.59913,-0.48447 -0.61516,-0.53527 -0.0883,-0.28001 0.35397,0.17151 0.91629,0.61317 1.2496,0.98147 0.78145,0.8635 1.09031,0.84352 2.1134,-0.13666 0.82719,-0.7925 2.87342,-1.61438 2.87342,-1.15413 0,0.12919 -0.4976,0.71718 -1.10577,1.30664 -1.47555,1.43017 -1.80894,2.45974 -1.28756,3.97633 0.51179,1.4887 1.18094,2.24477 2.57013,2.90399 1.36816,0.64923 2.46978,0.38326 3.50415,-0.84601 1.23287,-1.46519 0.90873,-4.19269 -0.73622,-6.19478 -0.2996,-0.36464 -0.0945,-0.18314 0.45584,0.40334 1.16978,1.24665 1.87689,3.44556 1.56485,4.86624 -0.32048,1.45917 -1.62335,2.84903 -2.89419,3.08744 -1.32339,0.24827 -3.76484,-0.81976 -4.52462,-1.97933 -0.56541,-0.86293 -1.63094,-1.01296 -1.91612,-0.2698 -0.10418,0.2715 -0.77255,0.79112 -1.48526,1.15472 -1.55182,0.79168 -3.25169,0.66666 -4.67032,-0.34349 -0.95505,-0.68005 -0.95505,-0.68005 -2.17498,0.64114 -1.5445,1.6727 -3.86845,2.85984 -6.03647,3.0836 -1.50421,0.15525 -1.77738,0.0856 -2.50078,-0.63783 z m 4.96936,-1.92158 c 2.4819,-1.2848 2.72847,-2.12888 0.74796,-2.56049 -1.75063,-0.38151 -4.92962,-0.0772 -5.53682,0.52998 -0.41699,0.41699 -0.43315,0.69167 -0.10512,1.78654 0.3662,1.22225 0.45615,1.29378 1.62683,1.29378 0.775,0 1.99885,-0.39325 3.26715,-1.04981 z m 47.71117,1.95003 c -0.1918,-0.23112 -0.43131,-1.50022 -0.53226,-2.82022 -0.14824,-1.93848 -0.1208,-2.18462 0.14271,-1.28 0.17943,0.616 0.55307,1.64544 0.8303,2.28765 0.33956,0.78659 0.4068,1.34144 0.20601,1.70022 -0.24217,0.43274 -0.36341,0.4538 -0.64676,0.11235 z m 8.98528,-0.32345 c -0.14767,-0.22788 -0.56453,-1.13487 -0.92635,-2.01554 -0.62597,-1.52359 -0.7221,-1.60596 -1.98246,-1.69877 -0.98649,-0.0726 -1.48741,0.0653 -1.96246,0.54033 -0.57443,0.57443 -0.65012,0.58413 -0.76104,0.0975 -0.0677,-0.29718 0.05,-0.90033 0.26155,-1.34033 0.2116,-0.44 0.57179,-1.85835 0.80044,-3.15189 0.72141,-4.08124 1.78972,-3.42983 4.13302,2.52013 0.88485,2.24674 1.60881,4.22638 1.60881,4.39919 0,0.17282 -0.20318,0.48283 -0.45151,0.68893 -0.34768,0.28855 -0.51325,0.27944 -0.72,-0.0396 z m -3.06849,-4.29846 c 0.83856,-0.22472 0.98947,-1.54746 0.28628,-2.50914 -0.61877,-0.84621 -1.41213,-0.40983 -1.66034,0.91325 -0.30789,1.64119 -0.0242,1.97063 1.37406,1.59589 z m -14.87362,4.01102 c -1.84211,-0.68144 -3.11452,-6.92511 -1.75375,-8.60559 0.79949,-0.98733 3.35113,-1.27673 4.23158,-0.47993 0.63229,0.57222 1.96925,0.57056 7.19579,-0.009 1.28,-0.14192 1.28,-0.14192 0.16,0.25161 -0.616,0.21645 -1.33061,0.52895 -1.58803,0.69447 -0.25742,0.16551 -1.19342,0.31734 -2.08,0.3374 -0.88658,0.0201 -2.05127,0.1489 -2.58819,0.28631 -0.85576,0.21901 -1.02273,0.14777 -1.35314,-0.5774 -0.44505,-0.97679 -1.75083,-1.1196 -2.89694,-0.31684 -1.0556,0.73937 -0.88047,2.7339 0.2663,3.03291 0.66003,0.17209 0.70635,0.24862 0.26474,0.43738 -0.81054,0.34646 -0.94734,1.05789 -0.43789,2.27719 0.53071,1.27017 1.26257,1.39582 3.74392,0.64275 1.57935,-0.47931 1.86923,-0.40582 1.86923,0.47387 0,0.89215 -3.71935,2.041 -5.03362,1.55482 z m 30.37762,-0.0333 c -9.02657,-5.3455 -3.7421,-2.27501 0.14426,-0.99298 0.38472,0.12691 2.34977,-1.25225 2.84949,-1.06049 0.43144,0.16556 0.43202,0.28771 0.005,1.11294 -0.67366,1.30271 -2.16816,1.7714 -2.99903,0.94053 z m 28.15217,-0.656 c -1.05153,-1.04 -1.05153,-1.04 -1.83656,-0.139 -1.78337,2.04681 -3.71834,0.0873 -3.8852,-3.9345 -0.0866,-2.0865 -0.0866,-2.0865 0.36397,-0.11319 0.57415,2.51471 1.00546,3.30669 1.8008,3.30669 0.93125,0 1.35499,-1.40896 1.12393,-3.73706 -0.12504,-1.25983 -0.0727,-2.05342 0.14435,-2.18755 0.56114,-0.3468 1.18021,0.41875 1.38765,1.71597 0.21165,1.3236 1.37383,3.27015 2.09379,3.50694 0.37455,0.12318 0.41266,-0.37629 0.23009,-3.01533 -0.12035,-1.73963 -0.30211,-3.70297 -0.40391,-4.36297 -0.16278,-1.05532 -0.10632,-1.2 0.46835,-1.2 0.76511,0 0.87286,0.29574 1.32011,3.62316 0.45726,3.40188 0.42287,5.15061 -0.12721,6.46712 -0.58692,1.40471 -1.31133,1.42355 -2.68016,0.0697 z m -62.85617,0.53705 c -0.132,-0.13404 -0.23562,-0.68771 -0.23027,-1.23038 0.008,-0.83529 0.0606,-0.89934 0.34105,-0.41747 0.36586,0.62853 0.27125,2.03578 -0.11078,1.64785 z m 40.28794,-0.37949 c -0.0824,-0.13334 -0.24715,-0.81734 -0.3661,-1.52 -0.21627,-1.27756 -0.21627,-1.27756 0.44884,-0.31756 0.69445,1.00236 0.88522,2.08 0.36821,2.08 -0.16561,0 -0.36854,-0.10909 -0.45095,-0.24244 z m 11.693,-0.87539 c -1.96909,-1.65688 -3.22933,-5.78744 -2.29717,-7.5292 0.17807,-0.33273 0.86207,-0.75446 1.52,-0.93718 1.49666,-0.41565 1.76509,-0.41845 1.51623,-0.0158 -0.10877,0.176 -0.46132,0.32 -0.78343,0.32 -0.96459,0 -2.01657,1.07241 -2.01657,2.05573 0,1.19799 0.49558,1.44767 2.96,1.49127 1.53212,0.0271 1.86928,0.10428 1.28,0.293 -0.44,0.14091 -1.34,0.27056 -2,0.2881 -0.98313,0.0261 -1.2,0.1496 -1.2,0.68316 0,1.54783 2.23432,3.4368 3.56541,3.01433 0.51593,-0.16375 0.62985,-0.0831 0.54139,0.38351 -0.18367,0.96868 -1.91008,0.94242 -3.08586,-0.0469 z m -6.79522,-1.4609 c -3.18474,-2.23652 -4.79266,-2.70367 -5.31061,-1.54291 -0.30617,0.68616 -0.3473,0.6392 -0.5499,-0.62778 -0.26851,-1.67916 -0.17385,-1.8452 1.1988,-2.10271 0.60008,-0.11258 1.4711,-0.50362 1.93557,-0.86898 0.69373,-0.54568 0.77419,-0.74902 0.45062,-1.13889 -0.37069,-0.44666 -1.31682,-0.46012 -3.61794,-0.0515 -0.38911,0.0691 -0.66972,-0.091 -0.73818,-0.42111 -0.0905,-0.43633 0.26218,-0.57248 1.95146,-0.75339 4.17817,-0.44744 5.51889,0.64812 3.68504,3.01121 -0.74966,0.96602 -0.57304,1.19523 2.53936,3.29546 1.86203,1.25648 2.32804,1.7286 2.24934,2.2788 -0.16462,1.15074 -0.9289,0.93351 -3.79356,-1.07822 z m -14.50635,0.59348 c -0.75449,-0.20166 -1.47937,-1.66323 -1.47937,-3.48569 0,-1.7855 0.59733,-3.19874 1.66938,-3.94963 1.46269,-1.02451 1.68473,-0.22931 0.33062,1.18408 -0.7059,0.7368 -0.87921,1.21507 -0.87601,2.41751 0.002,0.82444 0.25419,1.98911 0.56,2.58815 0.74148,1.45246 0.98999,1.56486 -0.20462,1.24558 z m -18.43937,-3.13475 c 0,-0.23466 0.096,-0.33066 0.21334,-0.21333 0.11733,0.11733 0.11733,0.30933 0,0.42667 -0.11734,0.11733 -0.21334,0.0213 -0.21334,-0.21334 z m 7.37508,-9.4399996 c -0.008,-0.4755 0.56336,-1.28823 0.76422,-1.08737 0.0958,0.0957 -0.0358,0.45158 -0.29243,0.79073 -0.25658,0.33916 -0.46889,0.47264 -0.47179,0.29664 z"
         id="path216" />
      <path
         style="fill:#201a68;stroke:#201a68;stroke-width:0.6;stroke-dasharray:none;stroke-opacity:1"
         d="m 84.995347,54.765702 c -2.2,-0.10059 -4.306379,-0.34877 -4.680842,-0.55152 -0.834041,-0.45159 -0.940417,-0.97423 -1.023382,-5.02803 -0.03602,-1.76 -0.207681,-5.432 -0.381471,-8.16 -0.790477,-12.40827 -0.893322,-14.61915 -0.720985,-15.4992 0.396283,-2.02364 5.108545,-5.45983 9.52668,-6.94687 1.840055,-0.61932 2.897051,-0.75347 5.92,-0.75131 3.502953,0.002 3.783139,0.0529 5.823806,1.04862 1.247287,0.60857 2.555887,1.54422 3.129197,2.23737 1.05087,1.27056 1.927,3.70362 1.927,5.35138 0,1.52233 -0.8253,3.98298 -1.90879,5.69112 -1.43584,2.26361 -1.34538,2.46889 1.08796,2.46889 1.13254,0 2.44606,0.14709 2.91892,0.32688 1.33889,0.50904 1.85268,-0.11342 1.60912,-1.94946 -0.23449,-1.76771 -0.0352,-1.99696 2.41164,-2.77421 2.03354,-0.64596 8.54655,-0.73823 9.97616,-0.14133 0.76633,0.31996 1.11334,0.26305 2.41367,-0.39587 2.44382,-1.23839 5.11908,-1.87185 8.15211,-1.93033 2.77295,-0.0535 2.84374,-0.0744 3.62687,-1.07511 0.92697,-1.18444 1.253,-1.26799 1.48506,-0.38058 0.13918,0.53222 0.4284,0.63707 1.71732,0.6226 1.85307,-0.0208 4.42996,-0.9383 4.42996,-1.57728 0,-0.57601 -1.12144,-0.89258 -3.30666,-0.93342 -1.1707,-0.0219 -1.66663,-0.15204 -1.57915,-0.41445 0.1979,-0.5937 1.76948,-0.88621 3.73616,-0.69539 3.28767,0.31899 4.08164,1.54359 2.1184,3.26734 -1.13781,0.99901 -2.85944,1.64565 -4.38986,1.64882 -1.07665,0.002 -1.44738,0.55044 -0.80598,1.19183 0.41362,0.41363 0.79626,0.43445 2.4927,0.13563 2.485,-0.43773 2.94159,-0.16263 2.7963,1.68481 -0.1391,1.76863 0.48274,1.83143 3.47774,0.35122 2.21148,-1.09297 2.42792,-1.14165 2.95509,-0.66457 0.31285,0.28313 0.97132,1.55611 1.46325,2.82883 1.27279,3.29298 5.12443,11.23074 5.75589,11.8622 0.29251,0.29251 0.66555,0.53184 0.82898,0.53184 0.58576,0 0.28005,-4.7839 -0.67613,-10.58013 -0.5353,-3.24493 -0.89746,-6.20437 -0.80478,-6.57654 0.14614,-0.5869 0.46341,-0.69776 2.39183,-0.83574 1.46493,-0.10481 2.61893,-0.39248 3.38307,-0.84334 1.29479,-0.76394 2.38559,-0.89117 2.4371,-0.28426 0.0187,0.22 0.0872,3.20801 0.15232,6.64001 0.0651,3.432 0.24348,7.824 0.39639,9.76 0.30451,3.8553 0.0859,7.29939 -0.50041,7.88575 -0.2063,0.2063 -2.0732,0.57557 -4.14867,0.8206 -4.28689,0.50612 -4.97123,0.54415 -7.54167,0.41904 -1.37572,-0.067 -1.99988,0.0474 -2.44196,0.44751 -1.04665,0.9472 -1.50306,0.0144 -1.73492,-3.54577 -0.23623,-3.62733 -0.44861,-4.58713 -1.01503,-4.58713 -0.55529,0 -0.79046,1.05248 -0.79563,3.56081 -0.003,1.30784 -0.1577,2.24348 -0.40437,2.44079 -0.22,0.17598 -1.35811,0.55685 -2.52914,0.84638 -1.67835,0.41496 -2.30061,0.44829 -2.93897,0.15743 -0.60375,-0.27509 -1.40551,-0.27921 -3.15085,-0.0162 -1.97007,0.29686 -2.3969,0.27873 -2.69354,-0.11442 -0.48332,-0.64057 -0.83312,-6.12512 -0.57343,-8.99091 0.25391,-2.80203 0.082,-2.95785 -2.47656,-2.24514 -0.94463,0.26313 -2.48375,0.57499 -3.42028,0.69301 -1.05453,0.13289 -1.7721,0.39526 -1.88489,0.68919 -0.10017,0.26104 0.0541,2.24583 0.34277,4.41065 0.68695,5.15127 0.68021,6.46479 -0.0351,6.83833 -0.91047,0.47546 -6.02191,0.78651 -6.72665,0.40934 -0.56266,-0.30113 -0.6454,-0.83939 -0.85253,-5.54637 -0.12617,-2.86709 -0.35579,-5.343 -0.51026,-5.50203 -0.30175,-0.31066 -3.05004,0.60289 -3.36969,1.12011 -0.10217,0.1653 0.11234,1.51148 0.47669,2.9915 0.75329,3.05998 0.82943,4.80067 0.25772,5.89232 -0.61557,1.17542 -3.61985,2.2804 -6.31146,2.32137 -2.32445,0.0354 -3.19966,-0.31247 -3.20872,-1.27534 -0.012,-1.27201 -0.42668,-1.41618 -2.83542,-0.98572 -1.82608,0.32634 -2.64327,0.32814 -4.11887,0.009 -1.746661,-0.37767 -5.200813,-2.27945 -5.200813,-2.86345 0,-0.15 -0.424785,-0.80725 -0.943966,-1.46056 -1.478133,-1.85998 -1.595296,-3.81459 -0.466362,-7.78017 0.179559,-0.63074 0.08747,-0.72 -0.742754,-0.72 -0.52125,0 -1.174233,0.252 -1.451076,0.56 -0.459011,0.51067 -0.435749,0.94556 0.264082,4.93708 0.715713,4.08209 1.021727,5.23152 2.086524,7.83726 0.340741,0.83386 0.339489,1.10473 -0.007,1.52227 -0.448617,0.54055 -0.414548,0.53991 -8.659411,0.16294 z m 5.702397,-2.31015 c 0.22397,-0.26986 0.243963,-0.84566 0.05833,-1.68 -0.446544,-2.00704 -1.280731,-8.77581 -1.280731,-10.39211 0,-1.54234 0.405968,-2.23729 1.306945,-2.23729 1.318689,0 5.945765,-2.72503 7.848919,-4.62248 2.356923,-2.34984 3.344153,-4.17393 3.547353,-6.55436 0.36396,-4.26365 -2.979294,-6.82783 -8.876448,-6.80798 -3.887674,0.0131 -8.215075,1.62076 -11.623996,4.31846 -1.237226,0.9791 -1.237226,0.9791 -1.041164,4.04273 0.238892,3.7329 0.403016,6.7342 0.866705,15.84921 0.196569,3.86408 0.483048,7.35608 0.636621,7.76 0.270474,0.7114 0.403597,0.73442 4.247962,0.73442 2.839214,0 4.065721,-0.11686 4.3095,-0.4106 z m -2.364584,-17.9266 c -0.934435,-0.80306 -0.937813,-0.81902 -0.937813,-4.43001 0,-3.62405 0,-3.62405 1.712313,-3.89797 2.287081,-0.36588 3.793223,-0.0385 4.895835,1.06409 2.361336,2.36134 0.105809,7.42089 -3.525319,7.90793 -0.97102,0.13024 -1.390681,0.004 -2.145016,-0.64404 z m 2.635309,-0.95414 c 2.004374,-1.12393 3.01869,-4.32149 1.738388,-5.48015 -0.686696,-0.62145 -3.097287,-0.82701 -3.897638,-0.33237 -0.46413,0.28685 -0.210885,4.54307 0.330502,5.55466 0.405558,0.75779 0.830363,0.81769 1.828748,0.25786 z m 22.859131,18.92766 c 0.59826,-0.20002 1.21107,-0.47453 1.36179,-0.61003 0.35759,-0.32148 -0.34007,-5.54195 -0.92898,-6.95141 -0.25077,-0.60019 -0.63342,-1.0321 -0.85031,-0.9598 -0.2169,0.0723 -0.72339,0.9809 -1.12554,2.01912 -0.4786,1.2356 -1.28352,2.44696 -2.33019,3.50679 -1.63256,1.65309 -1.89481,2.29522 -1.21502,2.97501 0.48634,0.48634 3.65652,0.499 5.08825,0.0203 z m 12.0958,-0.24981 c 0.37112,-0.23497 0.40891,-1.27536 0.22009,-6.05892 -0.14915,-3.77856 -0.11428,-5.98766 0.10085,-6.38964 0.22606,-0.42241 0.80724,-0.67286 1.85991,-0.80152 4.44066,-0.54272 7.7946,-2.01242 9.19108,-4.02755 1.02116,-1.47353 1.0257,-1.97535 0.0286,-3.16034 -1.06012,-1.25988 -3.18251,-1.83197 -6.72857,-1.8137 -2.88896,0.0149 -6.56,0.81309 -6.56,1.42636 0,0.16683 0.28746,0.77481 0.63881,1.35106 0.77506,1.27122 0.82299,3.12791 0.11904,4.61136 -0.28718,0.60519 -1.39194,1.87513 -2.45502,2.82209 -1.93287,1.72175 -1.93287,1.72175 -1.5409,5.34802 0.52124,4.82227 0.92017,6.33236 1.76283,6.67285 0.89783,0.36279 2.80394,0.37409 3.36329,0.0199 z m 1.71195,-14.65235 c -0.396,-0.0763 -0.73787,-0.30866 -0.7597,-0.51642 -0.12536,-1.19265 0.15171,-3.95655 0.43083,-4.29774 0.44092,-0.53896 3.21087,-0.50803 4.54831,0.0508 1.32117,0.55202 1.65298,1.4489 1.00188,2.708 -0.97655,1.88843 -2.65589,2.54951 -5.22132,2.05538 z m 3.59043,-2.06114 c 0.96061,-1.14163 0.76099,-1.7931 -0.62937,-2.05394 -1.81569,-0.34062 -2.22971,-0.11267 -2.34438,1.29082 -0.17877,2.1879 1.42794,2.60021 2.97375,0.76312 z m 31.65883,15.0178 c 0.59049,-0.31602 0.6044,-0.69523 0.39479,-10.7598 -0.1195,-5.73773 -0.32229,-10.53519 -0.45066,-10.66101 -0.23451,-0.22987 -2.45355,0.19493 -3.87645,0.74208 -0.71182,0.27372 -0.74854,0.40538 -0.54675,1.96067 0.90672,6.98877 1.13171,9.48626 1.14473,12.70724 0.008,2.024 0.14663,3.88824 0.30765,4.14275 0.31288,0.49454 -0.11008,1.61725 -0.60927,1.61725 -0.60583,0 -2.41905,-1.83485 -3.56438,-3.6069 -1.1914,-1.84333 -4.65622,-9.7039 -5.42911,-12.3169 -0.61989,-2.09576 -0.89698,-2.18797 -3.57056,-1.18827 -4.14784,1.55096 -3.76925,0.62284 -3.76925,9.24026 0,7.98942 0.10205,8.50724 1.5839,8.03692 0.69745,-0.22137 0.74475,-0.36591 1.26706,-3.87249 0.34935,-2.34545 1.05633,-4.41867 1.62706,-4.7714 1.25775,-0.77733 2.22437,1.16093 2.86216,5.73914 0.19464,1.39721 0.42114,2.60762 0.50332,2.6898 0.64252,0.64252 11.00681,0.8995 12.12576,0.30066 z m -57.24926,-1.2508 c 1.79226,-0.85568 2.91314,-1.92757 3.84155,-3.67367 1.38844,-2.61129 0.84455,-5.35805 -1.40146,-7.07764 -1.67258,-1.28056 -3.5677,-1.8126 -5.52946,-1.55237 -4.38401,0.58156 -7.442085,3.43647 -7.403039,6.91121 0.01789,1.59234 1.425737,4.07329 2.835671,4.99712 2.142098,1.40355 5.212868,1.56211 7.656738,0.39535 z m -4.14666,-2.11344 c -2.278945,-0.57889 -3.740694,-3.32433 -2.752786,-5.17025 0.456916,-0.85376 2.702776,-1.75507 3.730496,-1.49713 0.47887,0.12018 1.35179,0.69963 1.93981,1.28766 1.7593,1.7593 1.41511,4.27383 -0.70634,5.16023 -1.1307,0.47244 -1.19158,0.47848 -2.21118,0.21949 z m 2.00266,-2.07058 c 0.87554,-0.87555 -0.014,-3.136 -1.23414,-3.136 -0.88464,0 -1.9323,1.13887 -1.68596,1.83274 0.53551,1.50845 2.04238,2.18098 2.9201,1.30326 z m 37.21747,3.904 c 0.12087,-0.616 0.29423,-3.856 0.38525,-7.2 0.091,-3.344 0.34755,-7.0553 0.57005,-8.24734 0.43159,-2.31215 0.22114,-2.99127 -0.80494,-2.59753 -0.43382,0.16648 -0.53134,0.4813 -0.42451,1.37049 0.23526,1.95819 -0.59007,3.70794 -2.58999,5.49095 -1.80933,1.61309 -1.80933,1.61309 -1.80933,6.15826 0,2.49984 0.11244,4.94792 0.24987,5.44018 0.24317,0.87105 0.30279,0.89247 2.22686,0.8 1.97699,-0.095 1.97699,-0.095 2.19674,-1.21501 z m -25.25931,-8.18923 c 3.81051,-0.95784 6.93444,-3.17958 7.46978,-5.31252 0.28725,-1.1445 -0.84632,-2.34704 -2.97122,-3.15199 -1.59165,-0.60294 -2.27468,-0.67309 -5.19272,-0.5333 -3.67554,0.17608 -4.97127,0.52424 -5.24274,1.40871 -0.30825,1.00431 0.30506,2.79242 1.49043,4.34533 0.62981,0.82511 1.24536,1.82708 1.36788,2.2266 0.20752,0.67669 0.74068,1.5264 0.95777,1.5264 0.0522,0 1.0066,-0.22916 2.12082,-0.50923 z m -1.45901,-0.94134 c -0.40583,-0.40582 -0.51473,-0.85133 -0.38159,-1.56101 0.10247,-0.54622 0.0453,-1.48485 -0.12709,-2.08586 -0.39438,-1.37512 0.0213,-1.94256 1.42312,-1.94256 1.33402,0 2.09041,0.85306 2.09041,2.35759 0,0.93303 -0.26086,1.46685 -1.21848,2.49346 -1.16691,1.25099 -1.24251,1.28224 -1.78637,0.73838 z m 1.88485,-3.34943 c 0,-0.77111 -0.15908,-1.14187 -0.51973,-1.21133 -0.64537,-0.12429 -0.90614,0.50098 -0.687,1.64731 0.25404,1.32896 1.20673,0.98476 1.20673,-0.43598 z m 68.34283,16.5864 c -5.23108,-1.49866 -8.33563,-8.05137 -7.9301,-16.73789 0.23989,-5.1384 1.28315,-8.31341 3.95256,-12.02903 1.34552,-1.87286 4.11829,-3.35677 6.86519,-3.67405 1.6241,-0.18759 1.96004,-0.11111 3.61519,0.823 2.10092,1.18569 3.67552,3.33366 4.91456,6.70416 0.41905,1.13993 0.89651,2.23479 1.06102,2.43301 0.18044,0.21741 0.91064,0.30166 1.84034,0.21232 1.22258,-0.11747 1.88193,0.0246 3.18918,0.68699 1.98135,1.00403 2.62923,1.0521 2.62923,0.19509 0,-0.56062 0.21334,-0.64 1.72,-0.64 0.946,0 2.16309,-0.0886 2.70464,-0.19693 0.88752,-0.1775 1.00488,-0.10649 1.18994,0.72 0.33596,1.50049 1.52264,4.27924 1.99482,4.67112 0.69625,0.57783 0.98458,-0.24619 0.64434,-1.84146 -0.42751,-2.00446 -0.0556,-2.45754 2.6953,-3.2838 2.88419,-0.86629 3.02275,-0.86906 3.45096,-0.0689 0.44388,0.82938 1.34204,0.81543 2.10965,-0.0328 0.97341,-1.07561 2.21889,-1.56725 3.97035,-1.56725 1.75147,0 2.99695,0.49164 3.97036,1.56725 0.52567,0.58086 0.97207,0.67276 3.26798,0.67276 3.23161,0 3.62941,0.37122 2.79826,2.61133 -0.73682,1.98587 -0.73729,6.17534 -8.7e-4,7.68392 0.91892,1.88243 1.87383,1.93915 2.94121,0.17471 0.50722,-0.83846 0.62306,-1.62494 0.62306,-4.22996 0,-1.76 -0.12527,-3.80492 -0.27838,-4.54427 -0.31178,-1.50556 -0.39307,-1.45017 2.71777,-1.85178 1.27429,-0.16451 1.61317,-0.0784 2.44444,0.62106 0.9073,0.76344 1.02944,0.78527 2.04062,0.36473 0.59155,-0.24602 1.93955,-0.54575 2.99555,-0.66606 1.056,-0.12031 2.38663,-0.33837 2.95694,-0.48458 0.64489,-0.16532 1.395,-0.13067 1.98397,0.0916 0.77895,0.29402 1.05134,0.26306 1.53477,-0.17443 0.92564,-0.83769 2.82517,-1.51631 4.24432,-1.51631 1.70732,0 3.12183,0.62083 4.39608,1.92944 0.87186,0.89538 1.35368,1.10198 3.04,1.30355 1.80772,0.21608 3.98808,0.0465 6.86318,-0.53382 0.97822,-0.19744 1.02898,-0.15607 1.26079,1.02755 0.13285,0.6783 0.25018,1.95279 0.26075,2.83219 0.0192,1.59892 0.0192,1.59892 -1.2608,1.86684 -3.54433,0.74189 -3.17187,0.26549 -3.4287,4.38546 -0.12579,2.01783 -0.37779,4.4488 -0.56,5.40216 -0.18221,0.95335 -0.3313,2.25655 -0.3313,2.896 0,0.63944 -0.1728,1.33543 -0.384,1.54663 -0.5294,0.5294 -4.70982,0.51574 -4.89654,-0.016 -0.84744,-2.41327 -0.66273,-2.33475 -2.2355,-0.95034 -1.15063,1.01283 -1.76404,1.29979 -3.11819,1.45873 -2.02252,0.23739 -3.97365,-0.0337 -4.99279,-0.69366 -0.59404,-0.38469 -0.95448,-0.41221 -1.76,-0.1344 -0.55714,0.19215 -2.60855,0.44682 -4.55869,0.56594 -3.07276,0.18769 -3.61698,0.14532 -4.08,-0.3177 -0.29386,-0.29386 -0.53429,-0.74452 -0.53429,-1.00147 0,-0.82804 -0.90066,-0.84446 -1.98434,-0.0362 -2.60488,1.94293 -4.99798,1.69621 -7.49829,-0.77305 -1.56382,-1.5444 -1.67327,-1.59822 -2.00177,-0.98441 -0.39178,0.73206 -2.26989,1.98652 -2.9741,1.98652 -0.25463,0 -0.7033,-0.504 -0.99705,-1.12 -0.62338,-1.30723 -0.6784,-1.31791 -2.5095,-0.48703 -1.97974,0.89833 -4.11801,0.84282 -5.57317,-0.14468 -1.02699,-0.69694 -1.39101,-0.76825 -3.04117,-0.59577 -2.52303,0.26371 -3.57114,-0.2163 -4.78699,-2.19231 -0.53677,-0.87236 -1.15092,-1.52846 -1.36478,-1.45801 -0.22027,0.0726 -0.43077,0.84552 -0.48556,1.78295 -0.0967,1.65485 -0.0967,1.65485 -2.46738,1.65485 -2.36222,0 -2.56173,-0.0795 -3.45469,-1.37665 -0.38065,-0.55294 -0.45582,-0.54994 -1.82908,0.073 -1.81297,0.82238 -3.3811,0.83212 -5.40698,0.0336 -1.59854,-0.63009 -1.59854,-0.63009 -2.79455,0.88 -1.99024,2.51288 -3.08129,3.4632 -4.5906,3.99847 -2.00425,0.7108 -3.49279,0.86598 -4.77717,0.49802 z m 83.34545,-1.3064 c 0.23154,-0.625 0.72172,-4.13461 1.28438,-9.19596 0.28345,-2.54977 0.66691,-4.72961 0.85213,-4.84408 0.18521,-0.11447 0.85841,-0.14004 1.49598,-0.0568 0.63758,0.0832 1.55523,-10e-4 2.03923,-0.188 0.7517,-0.28982 0.88,-0.52136 0.88,-1.58803 0,-1.30962 -0.65358,-2.19425 -1.31785,-1.78371 -0.21224,0.13117 -1.98255,0.25295 -3.93402,0.27062 -3.54813,0.0321 -3.54813,0.0321 -3.64409,1.86905 -0.0762,1.45742 0.003,1.83694 0.38111,1.83694 0.2624,0 0.56254,0.13828 0.667,0.30728 0.22894,0.37044 -0.67931,9.50662 -1.14534,11.52106 -0.28518,1.23272 -0.25333,1.48472 0.23254,1.84 0.71854,0.52541 2.01606,0.53226 2.20893,0.0117 z m -16.88254,-0.59564 c 1.13643,-0.42731 1.86234,-2.84436 0.85424,-2.84436 -0.27502,0 -1.41184,0.31822 -2.52628,0.70716 -1.76183,0.61489 -2.09726,0.64824 -2.57036,0.25561 -0.45695,-0.37924 -0.50857,-0.78721 -0.32224,-2.54717 0.12203,-1.15258 0.3527,-2.25556 0.5126,-2.45106 0.15991,-0.19551 1.11454,-0.44049 2.12141,-0.5444 2.03598,-0.21014 2.84141,-0.85502 2.30941,-1.84907 -0.2871,-0.53646 -0.41062,-0.54525 -1.62783,-0.11579 -1.61615,0.57021 -2.42117,0.59027 -2.59774,0.0647 -0.18932,-0.56353 0.67285,-3.76948 1.25832,-4.67899 0.43142,-0.67019 0.65432,-0.73626 1.90539,-0.56478 1.30545,0.17893 1.44121,0.13004 1.72708,-0.62185 0.17065,-0.44883 0.31026,-1.40127 0.31026,-2.11655 0,-1.3005 0,-1.3005 -2,-1.08214 -4.26275,0.46541 -4.44089,0.52344 -4.88346,1.59093 -0.30117,0.72642 -0.33275,1.46635 -0.1175,2.75338 0.36546,2.18524 0.0615,5.94554 -0.68558,8.48 -0.65028,2.20619 -1.0136,5.07092 -0.73515,5.79655 0.16256,0.42362 0.64209,0.46305 3.26611,0.2686 1.69157,-0.12535 3.40217,-0.35071 3.80132,-0.50079 z m 10.15328,-0.69938 c 1.91545,-1.91545 2.39705,-5.81996 0.93254,-7.56043 -0.7387,-0.8779 -1.0176,-0.98455 -2.57455,-0.98455 -2.26789,0 -3.31701,-0.91133 -3.31701,-2.88135 0,-3.14224 1.80006,-4.15339 3.70044,-2.07865 0.83774,0.9146 1.25564,1.12 2.27872,1.12 1.57675,0 2.02084,-0.44295 2.02084,-2.01564 0,-3.38686 -2.86845,-5.56787 -6.16,-4.68372 -0.9295,0.24968 -1.89178,0.89657 -3.04,2.04364 -1.52479,1.52327 -1.68,1.81021 -1.68,3.10586 0,0.78514 -0.21142,1.70706 -0.46982,2.0487 -0.68428,0.90469 -0.59331,2.13491 0.24948,3.37383 0.73267,1.07704 0.75981,1.08631 2.86967,0.97969 1.976,-0.0999 2.1886,-0.0444 2.94034,0.76673 1.56516,1.68883 0.71011,4.30091 -1.40788,4.30091 -0.68103,0 -1.12908,-0.26806 -1.63455,-0.97792 -0.52647,-0.73936 -0.90258,-0.95404 -1.54179,-0.88 -0.80235,0.0929 -0.84083,0.17948 -0.7549,1.69792 0.0765,1.35103 0.26246,1.76182 1.19531,2.64 1.01676,0.95717 1.27332,1.04 3.22145,1.04 1.96758,0 2.19102,-0.0743 3.17171,-1.05502 z m -21.35568,-0.0902 c 1.03155,-0.6759 2.55851,-3.1563 3.13247,-5.08841 0.70942,-2.38806 0.89325,-5.46652 0.49496,-8.28827 -0.42916,-3.0404 -0.9192,-4.16427 -1.87519,-4.30059 -0.95268,-0.13584 -1.14228,0.47487 -0.77492,2.49603 0.37259,2.04993 -0.0295,5.98193 -0.75962,7.42834 -0.85465,1.6931 -2.07853,2.81808 -3.06585,2.81808 -2.23239,0 -3.41786,-1.4458 -4.1226,-5.02792 -0.37654,-1.9139 -0.29586,-2.92549 0.52414,-6.57208 0.18713,-0.83218 0.13601,-0.88 -0.94054,-0.88 -0.62613,0 -1.20719,0.11128 -1.29126,0.2473 -0.0841,0.13602 0.066,1.18002 0.33348,2.32 0.4047,1.72482 0.42358,2.5026 0.1125,4.63416 -0.37383,2.56147 -0.37383,2.56147 0.926,5.38831 1.61547,3.5133 2.28063,4.45793 3.61291,5.13091 1.1621,0.58701 2.4999,0.47623 3.69352,-0.30586 z m -51.54417,0.16555 c 1.75141,-0.66031 4.90083,-4.39359 4.90083,-5.80938 0,-0.61909 1.346,-2.93624 1.90704,-3.28298 0.18313,-0.11318 0.33296,-0.46729 0.33296,-0.7869 0,-0.63706 -1.12326,-0.98111 -3.20316,-0.98111 -1.16956,0 -1.21825,0.0469 -1.74299,1.68 -1.16702,3.6319 -3.09017,5.26341 -5.83907,4.95357 -2.22287,-0.25055 -3.80676,-2.07859 -4.66341,-5.38226 -1.05875,-4.08307 0.95931,-9.34675 4.02946,-10.51 1.50502,-0.57023 2.59521,-0.39052 4.23852,0.69869 1.42117,0.94197 1.79583,1.04 3.97486,1.04 2.36665,0 2.40495,-0.013 2.35402,-0.8 -0.16519,-2.55227 -2.80081,-6.75022 -4.92898,-7.85074 -1.04424,-0.54 -2.7701,-0.60898 -3.95596,-0.15812 -2.62511,0.99807 -5.38533,5.31651 -6.43283,10.06434 -0.69429,3.14694 -0.46957,7.99743 0.5072,10.94761 1.63248,4.93064 5.12086,7.45938 8.52151,6.17728 z m 41.88426,-0.72603 c 0.0898,-0.23412 -0.1917,-1.54371 -0.62565,-2.91021 -0.73365,-2.31029 -0.75768,-2.58855 -0.34265,-3.9676 0.56324,-1.87151 0.12452,-2.37725 -0.76071,-0.8769 -0.85552,1.45 -1.83733,1.53297 -2.13442,0.18037 -0.13974,-0.63626 -0.40655,-0.96 -0.79119,-0.96 -0.75678,0 -1.01367,0.72675 -0.77795,2.20087 0.24425,1.52744 -0.38853,2.09397 -2.38062,2.13142 -1.44024,0.0271 -1.47503,0.0524 -1.72525,1.25673 -0.49976,2.40537 1.35397,3.07562 4.48054,1.62001 0.92703,-0.43159 1.87538,-0.71185 2.10744,-0.6228 0.23205,0.089 0.65924,0.65957 0.9493,1.26783 0.54401,1.14082 1.67668,1.52585 2.00116,0.68028 z m 20.71173,-2.84475 c 0.94484,-1.11367 0.59618,-1.99219 -0.83749,-2.11024 -1.59252,-0.13113 -2.13767,0.36244 -2.13767,1.93544 0,1.27643 0,1.27643 1.2,1.06458 0.66,-0.11652 1.45883,-0.51692 1.77516,-0.88978 z m -32.39412,0.37915 c 0.53493,-0.28628 0.61888,-0.68817 0.61833,-2.96 -8e-4,-3.31026 -0.88199,-11.79936 -1.26451,-12.18188 -0.36281,-0.36281 -2.27511,-0.0166 -3.05395,0.55291 -0.54685,0.39986 -0.56269,0.62914 -0.21519,3.11592 0.52407,3.7504 0.48865,5.3805 -0.122,5.61483 -1.04971,0.40282 -2.90421,-2.40678 -4.77277,-7.2308 -0.74918,-1.93416 -1.62401,-2.52661 -3.16114,-2.14082 -1.18911,0.29845 -1.34199,1.35318 -0.49575,3.42009 1.04018,2.54055 0.97745,5.95535 -0.15331,8.34557 -0.46241,0.97745 -0.84075,1.99766 -0.84075,2.26713 0,0.80515 0.83867,1.25592 2.13767,1.14896 1.22233,-0.10065 1.22233,-0.10065 1.30529,-1.86065 0.11941,-2.53351 0.32505,-3.2 0.98736,-3.2 0.71388,0 1.55748,0.9004 3.04521,3.25027 0.63036,0.99565 1.33024,1.88428 1.55529,1.97474 0.74726,0.30035 3.80154,0.22019 4.43022,-0.11627 z m 40.26923,-0.99187 c 0.42453,-0.75888 0.41438,-0.93054 -0.10156,-1.71798 -0.53359,-0.81435 -0.67613,-0.8589 -2.06097,-0.64417 -0.81825,0.12688 -1.96453,0.2256 -2.54727,0.21937 -1.45621,-0.0156 -1.14697,0.73597 0.32051,0.77893 1.37616,0.0403 1.85902,0.31089 1.85902,1.04186 0,1.48043 1.75714,1.70403 2.53027,0.32199 z m -57.11427,-1.00214 c 2.74,-1.55922 3.63915,-5.99275 1.91647,-9.44972 -0.98644,-1.97951 -2.05399,-2.8089 -4.27553,-3.3217 -1.60188,-0.36976 -1.67351,-0.35577 -2.44652,0.47789 -0.62804,0.67732 -1.0896,0.8588 -2.18418,0.8588 -1.57096,0 -2.04877,0.40634 -2.42159,2.0594 -0.34534,1.53118 0.17097,2.12687 2.02454,2.33579 1.44631,0.16302 1.56196,0.11423 2.73138,-1.15248 1.30305,-1.41146 2.78446,-1.7765 3.53574,-0.87127 1.54765,1.86481 -0.22623,6.26856 -2.52505,6.26856 -1.01288,0 -1.61126,0.71096 -1.61126,1.91441 0,0.45715 0.33719,0.82304 1.04,1.12851 1.48859,0.647 2.77608,0.57121 4.216,-0.24819 z m -14.73276,-1.22299 c 1.04055,-0.81849 1.64503,-1.94756 2.14336,-4.0034 0.20909,-0.86259 0.70581,-1.92834 1.10382,-2.36834 0.39801,-0.44 0.82616,-1.42982 0.95144,-2.1996 0.26603,-1.63466 -0.0274,-1.94807 -1.83082,-1.9555 -0.88547,-0.004 -1.43966,-0.24996 -2.17104,-0.9649 -0.54013,-0.528 -1.12825,-0.96 -1.30692,-0.96 -0.96783,0 -2.29561,1.13814 -3.08845,2.64736 -0.76045,1.44755 -0.87358,2.01714 -0.84066,4.23264 0.0429,2.89057 0.61168,4.54829 1.91113,5.57043 1.07929,0.84897 2.05,0.84938 3.12814,10e-4 z m 36.67122,0.19494 c 0.28978,-0.34916 0.3054,-0.72406 0.0596,-1.42926 -0.31034,-0.89023 -0.24884,-1.02279 0.89473,-1.92852 0.73299,-0.58054 1.53095,-0.93958 1.97961,-0.89074 0.65929,0.0718 0.76414,-0.0707 0.8534,-1.15933 0.12925,-1.57619 -0.40881,-2.87641 -1.60782,-3.88531 -1.32922,-1.11846 -2.08312,-0.99758 -3.53282,0.56648 -2.07978,2.24383 -2.24056,2.74736 -1.84269,5.77076 0.1903,1.44608 0.40798,2.80924 0.48374,3.02924 0.19184,0.55713 2.23489,0.5019 2.71228,-0.0733 z m 41.8402,-2.49185 c 0.16569,-2.06422 0.16569,-2.06422 -0.88223,-2.42952 -0.57636,-0.20092 -1.79092,-0.36531 -2.69902,-0.36531 -1.78227,0 -2.61497,-0.42966 -2.79079,-1.44 -0.0675,-0.38782 -0.36184,-0.64 -0.747,-0.64 -0.54014,0 -0.65004,0.24938 -0.73165,1.66016 -0.11403,1.97123 0.30297,2.33481 2.62447,2.28821 1.67706,-0.0337 2.35565,0.41776 3.6203,2.4084 1.00407,1.58047 1.38858,1.22565 1.60592,-1.48194 z m -66.76693,-0.64501 c 0.78633,-0.60372 1.25227,-1.68072 1.25227,-2.89455 0,-1.39485 -0.76637,-1.76403 -1.90416,-0.91727 -0.67901,0.50533 -0.83193,0.91029 -0.91181,2.41458 -0.0831,1.56563 -0.0189,1.80606 0.48,1.79724 0.31679,-0.006 0.80445,-0.1856 1.0837,-0.4 z m 52.66178,-1.23091 c 0.59064,-0.49018 0.54242,-1.76749 -0.0757,-2.00468 -0.92144,-0.35359 -1.98247,-0.20174 -2.17959,0.31194 -0.10683,0.27839 -0.19424,0.94439 -0.19424,1.48 0,0.92198 0.0538,0.96308 1.00951,0.77193 0.55522,-0.11105 1.20322,-0.36268 1.44,-0.55919 z m -21.48074,-3.43675 c -0.80082,-5.58409 -4.94765,-7.33799 -8.77758,-3.71245 -1.21527,1.15042 -1.39786,1.46553 -1.04964,1.81148 0.34758,0.34533 0.5011,0.31103 0.875,-0.19552 1.31964,-1.78779 3.61157,-2.26548 5.44199,-1.13422 1.09181,0.67478 2.50044,2.75618 2.87483,4.24788 0.35714,1.42294 0.86804,0.60506 0.6354,-1.01717 z M 167.079,30.226112 c -0.11759,-1.54001 -0.28037,-3.03989 -0.36174,-3.33308 -0.18791,-0.6771 0.28383,-0.97516 2.27809,-1.43935 2.35089,-0.5472 2.46654,-0.31411 1.57858,3.18175 -0.59499,2.34246 -0.93387,3.09876 -1.64403,3.66909 -1.44664,1.1618 -1.61819,0.96916 -1.8509,-2.07841 z m 2.27035,-2.25001 c 0.1803,-0.90149 0.12116,-1.03 -0.474,-1.03 -0.55733,0 -0.68,0.19242 -0.68,1.06667 0,1.88841 0.77391,1.86382 1.154,-0.0367 z"
         id="path214" />
    </g>
  </g>
</svg>
